<svg xmlns="http://www.w3.org/2000/svg" viewBox="0 0 727 452.85"><defs><style>.cls-1{fill:#ebebeb;}.cls-2{opacity:0.72;}.cls-18,.cls-3{fill:#fff;}.cls-4{fill:#e0e0e0;}.cls-5{fill:#f5f5f5;}.cls-6{fill:#fafafa;}.cls-12,.cls-14,.cls-15,.cls-16,.cls-7{fill:#ff725e;}.cls-8{opacity:0.9;}.cls-9{opacity:0.6;}.cls-10,.cls-12,.cls-15{opacity:0.3;}.cls-11{fill:#455a64;}.cls-13,.cls-14,.cls-16{opacity:0.1;}.cls-15,.cls-16{fill-rule:evenodd;}.cls-17{fill:#263238;}.cls-18{opacity:0.5;}.cls-19{opacity:0.2;}</style></defs><g id="Layer_2" data-name="Layer 2"><g id="Floor_1" data-name="Floor 1"><path class="cls-1" d="M708.17,203a43.26,43.26,0,1,0-65.28-56.6l-15.36,31.56,66.28,48c7.4,5.35,17.76,10.73,24.87,5a13.38,13.38,0,0,0,4.54-10.07A18.28,18.28,0,0,0,708.17,203Z"/><path class="cls-1" d="M359.18,192.07c11.43-3.47,16.86.9,16.86.9a10.56,10.56,0,0,1,5.62-8.36c3.72-1.82,8.53-2.7,11.7,0a13.8,13.8,0,0,1,19-18.39c-7.4-18.6,2.64-42.24,21.17-49.82s42.26,2.25,50,20.71c.72-8.89,10.84-15.68,19.33-13-3.36-6.43,2.57-15.48,9.81-15a32.48,32.48,0,1,1,63.41-4.46c6.1-4.37,15.6-2.86,20,3.19,3.69-17.47,22.76-29.66,40.42-27s32,18.64,34.09,36.37-7.22,35.94-22,45.9L352.66,217C345.24,209.7,349.23,195.08,359.18,192.07Z"/><g class="cls-2"><path class="cls-3" d="M439.93,164.17c-1-2.63,2.38-8.11,6-12.55a16,16,0,0,1,6.93-4.6c9.54-3.61,20,1.18,28,7.51a7.08,7.08,0,0,1,7.81-7.31c-2.81-3-8.39-.62-9.78,3.22-5.27-3.24-11.3-7-17.45-7.57s-11,.87-15.39,5.26-7.24,9.78-6.13,16"/></g><g class="cls-2"><path class="cls-3" d="M532.06,107.68a14.82,14.82,0,0,0-6.63,13,12.23,12.23,0,0,0-15.17,9.81,14.46,14.46,0,0,1,7.89-7.56c4.77-1.59,8.46-.17,10.55,2.3A15.19,15.19,0,0,1,546.6,107,14.82,14.82,0,0,0,532.06,107.68Z"/></g><path class="cls-1" d="M344.39,189.53c-11.43-3.46-16.85.9-16.85.9a10.57,10.57,0,0,0-5.63-8.35c-3.72-1.82-8.53-2.71-11.7-.05a13.8,13.8,0,0,0-19-18.39c7.4-18.59-2.64-42.24-21.17-49.81s-42.26,2.25-50,20.7c-.72-8.89-10.84-15.67-19.33-13,3.36-6.43-2.57-15.48-9.8-15a32.48,32.48,0,0,0-47.46-37,33.3,33.3,0,0,0-16,32.59c-6.1-4.37-15.6-2.86-20,3.19-3.69-17.47-22.76-29.65-40.42-27S35,96.93,32.92,114.66s7.22,35.94,22,45.91l296,53.88C358.33,207.17,354.34,192.55,344.39,189.53Z"/><g class="cls-2"><path class="cls-3" d="M176.4,106a14.83,14.83,0,0,1,6.63,13,12.23,12.23,0,0,1,15.17,9.8,14.43,14.43,0,0,0-7.9-7.55c-4.76-1.6-8.46-.18-10.55,2.3a15.2,15.2,0,0,0-17.9-18.2A14.83,14.83,0,0,1,176.4,106Z"/></g><g class="cls-2"><path class="cls-3" d="M157.6,108a8,8,0,0,1,3.58,7,6.61,6.61,0,0,1,8.19,5.29,7.81,7.81,0,0,0-4.26-4.08c-2.57-.86-4.57-.09-5.69,1.24a8.21,8.21,0,0,0-9.66-9.82A8,8,0,0,1,157.6,108Z"/></g><path class="cls-4" d="M287.09,106.75a.68.68,0,0,1-.24,0l-.58,0c-.23,0-.44,0-.59-.06l-.24,0a.86.86,0,0,1,.25,0l.58,0,.58,0A1.22,1.22,0,0,1,287.09,106.75Z"/><path class="cls-4" d="M287.23,106.5a.68.68,0,0,1-.24,0c-.15,0-.36,0-.59,0s-.43,0-.58-.06l-.24,0a.75.75,0,0,1,.24,0l.58,0,.59,0Z"/><path class="cls-4" d="M280.8,106.29a1.67,1.67,0,0,1,.52-.59,26.51,26.51,0,0,1,2.67-.39l4.12.37a.83.83,0,0,1-.78.49c-.64,0-1.38,0-1.38,0a2.52,2.52,0,0,1-1.13.68,3,3,0,0,1-2.28-.14c-.67-.4-1.19.13-1.45-.3A.32.32,0,0,0,280.8,106.29Z"/><path class="cls-4" d="M288.77,99.65a7.32,7.32,0,0,1-.51,1.14c-.07.11-.14.23-.26.27a4.9,4.9,0,0,0,.38-1.85,5.33,5.33,0,0,1-.23.63,4.54,4.54,0,0,1-.21.45,5.85,5.85,0,0,1-.83,1,6,6,0,0,1-.71.72,12.65,12.65,0,0,1-1.17.8,2.9,2.9,0,0,0-.66.49,1.38,1.38,0,0,0-.14.3,5.73,5.73,0,0,1-1.49,2.21l1.37.26a2.27,2.27,0,0,0,1.41-.8,3.7,3.7,0,0,0,.73-1.47.81.81,0,0,1,.15-.37,1.2,1.2,0,0,1,.27-.19,1.27,1.27,0,0,0,.39-.41.64.64,0,0,1-.36.11,12.49,12.49,0,0,0,1-.8,2.35,2.35,0,0,0,.69-.94,1.07,1.07,0,0,1-.43.36A3.44,3.44,0,0,0,288.77,99.65Z"/><path class="cls-4" d="M281.38,106a.08.08,0,0,0-.08,0,.19.19,0,0,0,0,.08.13.13,0,0,0,.12.1.12.12,0,0,0,.12-.08.13.13,0,0,0-.07-.14h-.11"/><path class="cls-4" d="M280.88,106.17a.8.8,0,0,0-.48.27c-.13.21-.15.39-.12.4s.05-.11.32-.21.53-.15.53-.15Z"/><path class="cls-4" d="M283.52,105l-1.39-1.23a3.26,3.26,0,0,1-.45-.46c-.26-.37-.34-.84-.6-1.2l-.08.31a3.43,3.43,0,0,0-.33-.76l-.09.36a2.72,2.72,0,0,0-.47-1,.71.71,0,0,0-.16.49,7.48,7.48,0,0,0-.44-1,4.39,4.39,0,0,0,0,2.66,2.13,2.13,0,0,0,.18.5,2,2,0,0,0,.39.43,10.64,10.64,0,0,1,1.88,1.65l2.06-.1A7.66,7.66,0,0,1,283.52,105Z"/><path class="cls-4" d="M284.07,105.66h0S284.06,105.67,284.07,105.66Z"/><path class="cls-4" d="M286.45,103.83a.81.81,0,0,1,.15-.37,1.2,1.2,0,0,1,.27-.19,1.27,1.27,0,0,0,.39-.41.64.64,0,0,1-.36.11,12.49,12.49,0,0,0,1-.8,2.35,2.35,0,0,0,.69-.94,1.07,1.07,0,0,1-.43.36,3.44,3.44,0,0,0,.64-1.94,7.32,7.32,0,0,1-.51,1.14c-.07.11-.14.23-.26.27a4.9,4.9,0,0,0,.38-1.85,5.33,5.33,0,0,1-.23.63,4.54,4.54,0,0,1-.21.45,5.85,5.85,0,0,1-.83,1,9.66,9.66,0,0,1-.71.72l1.19-.57-.6.75.67-.32a6.47,6.47,0,0,0-1.27,1.39,1.09,1.09,0,0,0,0,.79Z"/><path class="cls-4" d="M281.68,103.31c-.26-.37-.34-.84-.6-1.2l-.08.31a3.43,3.43,0,0,0-.33-.76l-.09.36a2.72,2.72,0,0,0-.47-1,.71.71,0,0,0-.16.49,7.48,7.48,0,0,0-.44-1,4.39,4.39,0,0,0,0,2.66,2.13,2.13,0,0,0,.18.5l.06-.73s0-.94.29-.57.77,1,.77,1l-.11-.64s.37.55.59.62A.43.43,0,0,0,281.68,103.31Z"/><path class="cls-4" d="M284.51,103.43h0s0,0,0,0,0,0,0,0l-.05.14c-.06.11-.13.28-.23.48s-.23.45-.38.72-.15.26-.24.4a1.06,1.06,0,0,1-.17.2.38.38,0,0,1-.13,0l-.13,0c-.69.11-1.32.16-1.77.23a.47.47,0,0,0-.26.14L281,106l-.11.16s0,0,0,0,0-.07.07-.13l.15-.18a.59.59,0,0,1,.27-.15c.46-.08,1.08-.14,1.77-.24l.13,0,.11,0c.05,0,.1-.12.15-.18s.17-.27.25-.4.28-.5.38-.7.18-.36.25-.48l.06-.13,0,0s0,0,0,0Z"/><path class="cls-4" d="M287,102.16s0,0,0,0a.72.72,0,0,0-.07.11,1.57,1.57,0,0,1-.32.35,3.64,3.64,0,0,1-.58.39,3.26,3.26,0,0,0-.34.22,1.48,1.48,0,0,0-.3.31,4.73,4.73,0,0,0-.35.77,3.21,3.21,0,0,1-.33.62,3.72,3.72,0,0,1-.3.36l-.1.09,0,0s0,0,.11-.13a4.3,4.3,0,0,0,.28-.37,3.55,3.55,0,0,0,.32-.62,3.83,3.83,0,0,1,.36-.78,1.36,1.36,0,0,1,.3-.33L286,103a4.87,4.87,0,0,0,.58-.38,1.59,1.59,0,0,0,.32-.33A.75.75,0,0,0,287,102.16Z"/><path class="cls-4" d="M284.24,106.57a.36.36,0,0,1-.25,0c-.15,0-.24-.1-.23-.11s.11,0,.24,0S284.23,106.55,284.24,106.57Z"/><path class="cls-4" d="M284.78,106.48a.61.61,0,0,1-.42.08.69.69,0,0,1-.4-.14,3.86,3.86,0,0,0,.41.08A2.28,2.28,0,0,0,284.78,106.48Z"/><path class="cls-4" d="M286.27,106.69l-.58,0a.86.86,0,0,0-.25,0l.24,0c.15,0,.36,0,.59.06l.58,0a.68.68,0,0,0,.24,0,1.22,1.22,0,0,0-.24,0Z"/><path class="cls-1" d="M438.62,90.1c-3.14-.81-6.45-.08-9.57.78a11.1,11.1,0,0,0-17.87-9.47c-3.05-8-9.42-15.06-17.64-17.58s-18.12.19-23,7.3c-4.5,6.65-3.25,16.8,3,21.66-11.17-6.7-19.86,2-18.83,11.41,25.34-.75,51.93.4,77.26-.35a21.53,21.53,0,0,0,7.67-1.17c2.4-1,4.51-3.14,4.69-5.74C444.6,93.71,441.75,90.9,438.62,90.1Z"/><path class="cls-1" d="M683,40.87c-3.78-1-7.76-.09-11.52,1A13.38,13.38,0,0,0,649.9,30.41c-3.67-9.68-11.35-18.13-21.25-21.17S606.82,9.46,601,18c-5.43,8-3.92,20.24,3.59,26.08-13.46-8.06-23.93,2.41-22.68,13.76l91.65.61c3.14-.09,7.5-.11,10.39-1.32s5.93-3.37,5.91-8C689.86,45.22,686.72,41.84,683,40.87Z"/><path class="cls-5" d="M340,43.32c-5-1.29-10.27-.13-15.24,1.25a17.7,17.7,0,0,0-28.48-15.1c-4.86-12.8-15-24-28.11-28s-28.88.29-36.56,11.63c-7.19,10.6-5.2,26.77,4.74,34.5-17.8-10.66-31.65,3.19-30,18.2l121.25.81c4.14-.12,9.91-.15,13.73-1.75s7.85-4.46,7.83-10.63C349.1,49.07,345,44.6,340,43.32Z"/><path class="cls-1" d="M135.49,26.05c-2.65-.68-5.44-.06-8.07.66a9.38,9.38,0,0,0-15.09-8c-2.58-6.78-8-12.71-14.89-14.84S82.14,4,78.07,10c-3.81,5.62-2.75,14.19,2.51,18.28C71.15,22.67,63.82,30,64.69,38l64.23.43c2.19-.06,5.25-.08,7.27-.92s4.16-2.37,4.15-5.64A6.32,6.32,0,0,0,135.49,26.05Z"/><path class="cls-6" d="M505.57,37.08a11.27,11.27,0,0,0-5.74.47,6.68,6.68,0,0,0-10.74-5.69c-1.83-4.83-5.66-9-10.6-10.56s-10.89.11-13.78,4.39c-2.71,4-2,10.09,1.79,13-6.71-4-11.93,1.2-11.31,6.85l45.71.31a16.07,16.07,0,0,0,5.18-.66,4.17,4.17,0,0,0,2.95-4A4.49,4.49,0,0,0,505.57,37.08Z"/><path class="cls-1" d="M32.64,120.26c0,62.55,1.81,113.16,1.81,113.16l674.85-1-62.59-76.73L543.22,171.7,383.5,199l-28.76,9.68L278.2,193.18Z"/><circle class="cls-7" cx="339" cy="188.5" r="46.41" transform="translate(-25.24 55.14) rotate(-8.97)"/><g class="cls-8"><circle class="cls-3" cx="339" cy="188.5" r="46.41" transform="translate(-25.24 55.14) rotate(-8.97)"/></g><circle class="cls-7" cx="339" cy="188.5" r="41.39"/><g class="cls-9"><circle class="cls-3" cx="339" cy="188.5" r="41.39"/></g><circle class="cls-7" cx="339" cy="188.5" r="34.44" transform="translate(126.6 513.07) rotate(-85.88)"/><g class="cls-10"><circle class="cls-3" cx="339" cy="188.5" r="34.44" transform="translate(126.6 513.07) rotate(-85.88)"/></g><circle class="cls-7" cx="339" cy="188.5" r="27.58"/><path class="cls-11" d="M513.35,219.42,508,209.66,492.39,207l-20.2-11.39L461.52,182l-19.06-19-20.2-6.51-12.19,10.31-9.91,21.69-14.86,4.89-11.05,13-24.4,3.26-13-8.14-7.62,2.17L302.6,196.1l-17.91-10.85-11.82-16.54a53.9,53.9,0,0,0-10.67-10.58L250.39,146.2,224.47,131l-8,11.39-6.86,3.25L171.88,174.4l-32.78,7H117.38s-31.73,48.17-32.87,48.71H535.07Z"/><path class="cls-12" d="M513.35,219.42,508,209.66,492.39,207l-20.2-11.39L461.52,182l-19.06-19-20.2-6.51-12.19,10.31-9.91,21.69-14.86,4.89-11.05,13-24.4,3.26-13-8.14-7.62,2.17L302.6,196.1l-17.91-10.85-11.82-16.54a53.9,53.9,0,0,0-10.67-10.58L250.39,146.2,224.47,131l-8,11.39-6.86,3.25L171.88,174.4l-32.78,7H117.38s-31.73,48.17-32.87,48.71H535.07Z"/><path class="cls-11" d="M34.33,227.68C36.78,225.84,73,148.83,73,148.83l25.17-8.93,39.29-26.4,36.21,12.28,9.21,13.51,17.19,3.06,22.1,28.24,69.36,46.66,46,10.43,34.19-16.58,52.18-29.46,46.23-11s35.6-31.3,37.44-31.92S561,148.83,561,148.83l45.42,27.9,64.46,14.12,56,45.45L341,239.39l-309.74-2.5Z"/><polygon class="cls-13" points="98.17 139.9 101.89 154.76 111.8 163.02 117.38 181.45 134.91 190.5 142.78 217.93 190.25 238.17 31.26 236.89 34.09 228.41 50.52 196.01 73 148.84 98.17 139.9"/><path class="cls-14" d="M337.57,227.68l51.61-18.82,36.38-24.62-3.75,7.49s49.85-21.5,48.36-21.14l-46.23,11L371.76,211.1l-34.19,16.58Z"/><polygon class="cls-14" points="470.17 170.59 486.92 163.89 505.56 140.15 484.07 158.44 470.17 170.59"/><path class="cls-7" d="M209.61,145.65l.43-.22,1.3-.64,5.09-2.46,0,0,8-11.42.07-.1.11.06,26,15.14h0l0,0L262.36,158l0,0a47.61,47.61,0,0,1,6.27,5.46,51.51,51.51,0,0,1,5.56,6.7l10.73,15-.08-.06,17.92,10.84-.06,0L324.13,202l5.22,1.48h-.15l7.63-2.17.11,0,.1.06L350,209.44l-.17,0,24.39-3.24-.15.09,11.06-13,.05-.05.06,0,14.86-4.87-.12.12,9.94-21.68,0,0,0,0,12.22-10.28.06-.05.07,0,14.95,4.88,3.89,1.29,1,.34.33.12-.34-.09-1-.3-3.91-1.23-15-4.76.13,0-12.17,10.34.05-.06c-2.93,6.43-6.23,13.7-9.88,21.71l0,.09-.08,0-14.86,4.9.1-.07-11,13-.06.07h-.09l-24.39,3.27h-.09l-.08,0-13-8.13.21,0-7.62,2.17-.07,0-.08,0L324,202.46l-21.46-6.11h0l0,0-17.9-10.86-.05,0,0-.05q-5.52-7.75-10.7-15a51.56,51.56,0,0,0-5.51-6.67,46.65,46.65,0,0,0-6.2-5.41h0l0,0-11.79-11.94,0,0L224.4,131.13l.18,0c-3.31,4.68-6,8.52-8,11.36l0,0h0l-5.12,2.39-1.32.6A4.81,4.81,0,0,1,209.61,145.65Z"/><polygon class="cls-12" points="284.69 185.25 302.86 205.43 301.37 199.13 335.21 217.13 317.3 201.19 329.27 203.69 302.6 196.1 284.69 185.25"/><path class="cls-12" d="M374.25,206.4c.51-.6,12.34-11.6,12.34-11.6l-1.45,4.33,4.63-5.42,7.35-2.36-1.73,2.36-.09,2.09,1.18-2.54,3.68-4.76-14.86,4.89Z"/><polyline class="cls-12" points="336.9 201.52 337.57 204.64 340.98 207.93 338.94 204.15 340.54 204.73 342.77 207.55 345.32 209.2 343.23 206.95 342.77 205.63 349.86 209.66 337.14 201.52"/><polygon class="cls-12" points="341.7 209.24 343.38 211 346.36 211.92 341.7 209.24"/><path class="cls-15" d="M303.55,207.83c.42,0,6.24,4.68,6.24,4.68l7,1.92Z"/><path class="cls-15" d="M224.47,131l8,18.2,6,6.11-3-7.11,1.08-4,9.32,5,4.91,12.21,8.71,6.44-7.58-11.7-.79-3s9.48,6.1,9.48,6.6,7.12,9.32,7.12,9.32l-6.19-11.6L250.39,146.2Z"/><path class="cls-15" d="M401.26,186.1c.11-.25,8.53-15.51,8.53-15.51L408.08,177l.34,4.77s.68-4.66.8-5.28S413,167,413,167l3.41-3.07-1.93,6.71,4.43-8.75,3.38-5.34-12.19,10.31Z"/><path class="cls-15" d="M414,172.32a24.06,24.06,0,0,0-1.28,3l.24,2Z"/><polygon class="cls-15" points="240.23 157.44 244.51 165.28 251.87 172.49 240.23 157.44"/><path class="cls-16" d="M417.86,196c-.6.2-14,8.4-14,8.4l-1.64,4.83Z"/><path class="cls-7" d="M222.17,170.59l.33.2,1,.63,3.75,2.48,14.16,9.45,50.28,33.71-.08,0,46.05,10.41-.17,0c9.27-4.49,18.88-9.15,28.71-13.93,5.37-2.42,10.35-5.43,15.34-8.22L396.2,197l27.62-15.58,0,0h0l46.23-11-.07,0,27.45-23.29,7.48-6.32,1.95-1.63.68-.54s-.21.21-.64.58l-1.92,1.68-7.42,6.38-27.34,23.42,0,0h0L424,181.87l.06,0-27.61,15.61-14.7,8.3c-5,2.79-10,5.8-15.34,8.23l-28.73,13.92-.08,0-.08,0-46-10.46h0l0,0-50.18-33.86L227.14,174l-3.71-2.54-1-.66A3,3,0,0,1,222.17,170.59Z"/><polygon class="cls-14" points="290.03 217.45 249.67 197.46 257.98 209.24 269.02 212.76 256.9 211.06 241.03 196.53 238.47 194.74 238.47 201.19 223.29 171.34 291.53 217.25 290.03 217.45"/><path class="cls-14" d="M137.46,113.5s25,34.21,25.18,33.83-6-16.91-6-16.91l9.69,2.37L169,143.12l26.9,15.3-13.65-13.26.9-3.95L196.68,150l1.78-4s22.68,23.35,22.35,22.93l-20.74-26.51-17.19-3.06-9.21-13.51S136.88,113.46,137.46,113.5Z"/><path class="cls-14" d="M187.56,165.28c1.34,1,9.75,7.21,9.75,7.21l13.88,25L196,179.37l-3-.44-15-20.62,7.11,7Z"/><path class="cls-14" d="M456.53,183.5c-1.55.7-11.17,4.73-11.17,4.73l-19.35,21,19-14,3,.27L467.48,179l-8.55,5.11Z"/><path class="cls-14" d="M178.39,187.85c1.34,1,9.75,7.21,9.75,7.21l2,10.82-3.61-7.12-2.7.46-10-18.64,4.75,4.58Z"/><path class="cls-14" d="M247,212.11c1.49.8,10.79,5.52,10.79,5.52L261.57,228l-4.72-6.44-2.58.9-13-16.75,5.43,3.73Z"/><path class="cls-13" d="M431.21,236.91l23.32-10.33s.44-8.46,1-8.47,9.6,1.8,9.6,1.8V206.08l19.76-23.4,11.6-3.85s-7.84,5.83-8.78,6.27-4.08,12-4.08,12l19.76-12,7.21-13.18,11.61-5.61H511.88L525.34,152l-14-5,30.34,6.16,49.19,29.59,53.24,9.57,52.23,42.37Z"/><path class="cls-11" d="M507.88,189c-.58.19-5.9,7.27-5.9,7.27s-1.3,6.45-.87,6.16,8.49-9.94,8.49-9.94Z"/><polygon class="cls-13" points="359.91 238.59 390.71 232.76 390.71 236.77 417.86 216.83 406.82 232.59 417.86 235.98 442.46 238.76 359.91 238.59"/><path class="cls-17" d="M290.29,135.43l-.24,0-.59,0-.58-.06a.77.77,0,0,1-.24-.05h.24l.58,0,.59,0A.68.68,0,0,1,290.29,135.43Z"/><path class="cls-17" d="M290.42,135.18a.68.68,0,0,1-.24,0l-.58,0-.59-.06-.24,0a.84.84,0,0,1,.25,0l.58,0,.58,0A1.22,1.22,0,0,1,290.42,135.18Z"/><path class="cls-17" d="M284,135a1.61,1.61,0,0,1,.51-.59c.27-.13,2.68-.39,2.68-.39l4.11.37a.82.82,0,0,1-.77.49c-.65.05-1.38,0-1.38,0a2.59,2.59,0,0,1-1.13.68,3.08,3.08,0,0,1-2.29-.14c-.66-.4-1.19.13-1.45-.3A.28.28,0,0,0,284,135Z"/><path class="cls-17" d="M292,128.33a8.33,8.33,0,0,1-.52,1.14.53.53,0,0,1-.26.27,5,5,0,0,0,.39-1.85c-.07.21-.15.42-.23.62s-.14.31-.22.46a5.8,5.8,0,0,1-.82,1,7,7,0,0,1-.72.72c-.54.42-.58.39-1.17.79a2.92,2.92,0,0,0-.65.49,1.35,1.35,0,0,0-.14.3,5.77,5.77,0,0,1-1.49,2.21l1.36.26a2.22,2.22,0,0,0,1.41-.79,3.55,3.55,0,0,0,.73-1.48,1,1,0,0,1,.16-.37,1.09,1.09,0,0,1,.27-.19,1.18,1.18,0,0,0,.39-.41.63.63,0,0,1-.37.12,10.8,10.8,0,0,0,1-.81,2.44,2.44,0,0,0,.69-.93,1.15,1.15,0,0,1-.43.36A3.62,3.62,0,0,0,292,128.33Z"/><path class="cls-17" d="M284.57,134.68s-.05,0-.07,0a.08.08,0,0,0,0,.08.12.12,0,0,0,.11.1.11.11,0,0,0,.12-.09.11.11,0,0,0-.07-.13h-.11"/><path class="cls-17" d="M284.07,134.84a.84.84,0,0,0-.48.28c-.13.21-.14.39-.11.4s0-.11.31-.21a3.71,3.71,0,0,1,.54-.15Z"/><path class="cls-17" d="M286.72,133.67l-1.4-1.22a3.9,3.9,0,0,1-.45-.46c-.26-.37-.34-.84-.6-1.2l-.08.31a2.76,2.76,0,0,0-.33-.77l-.09.37a2.9,2.9,0,0,0-.46-1,.71.71,0,0,0-.17.5,6.31,6.31,0,0,0-.44-1,4.32,4.32,0,0,0,0,2.66,1.88,1.88,0,0,0,.18.5,2,2,0,0,0,.39.43,11.4,11.4,0,0,1,1.88,1.65l2.05-.1A7.59,7.59,0,0,1,286.72,133.67Z"/><path class="cls-17" d="M287.26,134.34h0Z"/><path class="cls-17" d="M289.64,132.5a1,1,0,0,1,.16-.37,1.09,1.09,0,0,1,.27-.19,1.18,1.18,0,0,0,.39-.41.63.63,0,0,1-.37.12,10.8,10.8,0,0,0,1-.81,2.44,2.44,0,0,0,.69-.93,1.15,1.15,0,0,1-.43.36,3.62,3.62,0,0,0,.64-1.94,8.33,8.33,0,0,1-.52,1.14.53.53,0,0,1-.26.27,5,5,0,0,0,.39-1.85c-.07.21-.15.42-.23.62s-.14.31-.22.46a5.8,5.8,0,0,1-.82,1c-.23.24-.47.49-.72.72l1.19-.57-.6.75.67-.32a6.24,6.24,0,0,0-1.26,1.39,1,1,0,0,0,0,.78Z"/><path class="cls-17" d="M284.87,132c-.26-.37-.34-.84-.6-1.2l-.08.31a2.76,2.76,0,0,0-.33-.77l-.09.37a2.9,2.9,0,0,0-.46-1,.71.71,0,0,0-.17.5,6.31,6.31,0,0,0-.44-1,4.32,4.32,0,0,0,0,2.66,1.88,1.88,0,0,0,.18.5l.05-.73s0-.94.29-.57.78,1,.78,1l-.11-.65s.36.56.59.63A.47.47,0,0,0,284.87,132Z"/><path class="cls-17" d="M287.71,132.11h0s0,0,0,0,0,0,0,0l-.06.13c-.05.12-.13.29-.23.49s-.22.45-.37.71l-.25.41-.16.2a.43.43,0,0,1-.14,0l-.13,0c-.69.11-1.31.16-1.76.23a.43.43,0,0,0-.26.13.73.73,0,0,0-.15.17l-.12.16a.11.11,0,0,0,0,0,1.17,1.17,0,0,1,.08-.13.75.75,0,0,1,.15-.18.45.45,0,0,1,.27-.15c.45-.08,1.08-.14,1.76-.24l.13,0,.11,0a.84.84,0,0,0,.15-.18,3.68,3.68,0,0,0,.25-.4c.15-.26.28-.5.38-.71s.19-.36.25-.48l.07-.13,0,0h0Z"/><path class="cls-17" d="M290.18,130.84l0,0a.41.41,0,0,1-.06.11,1.91,1.91,0,0,1-.32.35,6.39,6.39,0,0,1-.58.4,1.86,1.86,0,0,0-.35.22,1.23,1.23,0,0,0-.29.31,4.08,4.08,0,0,0-.36.77,3.93,3.93,0,0,1-.33.62,2.56,2.56,0,0,1-.3.36l-.09.09,0,0,.11-.13a3,3,0,0,0,.29-.38,2.88,2.88,0,0,0,.31-.61,4.46,4.46,0,0,1,.36-.78,1.22,1.22,0,0,1,.31-.33,3.37,3.37,0,0,1,.35-.22,3.64,3.64,0,0,0,.58-.38,2,2,0,0,0,.33-.33A.68.68,0,0,1,290.18,130.84Z"/><path class="cls-17" d="M287.43,135.24s-.1.07-.25,0a.34.34,0,0,1-.23-.11s.11,0,.24.06S287.43,135.23,287.43,135.24Z"/><path class="cls-17" d="M288,135.16a.67.67,0,0,1-.41.07.66.66,0,0,1-.41-.13s.18.06.41.08S288,135.14,288,135.16Z"/><path class="cls-17" d="M289.46,135.37l-.58,0h-.24a.77.77,0,0,0,.24.05l.58.06.59,0,.24,0a.68.68,0,0,0-.24,0Z"/><path class="cls-17" d="M283.59,103.45a1.81,1.81,0,0,1-.39,0c-.23,0-.56,0-.93,0s-.69-.06-.93-.09a1.82,1.82,0,0,1-.38-.07,1.68,1.68,0,0,1,.39,0l.93.06.93.06A1.62,1.62,0,0,1,283.59,103.45Z"/><path class="cls-17" d="M283.81,103.05a2.19,2.19,0,0,1-.39,0l-.93,0-.93-.09a1.33,1.33,0,0,1-.38-.08h.38l.93.07.93.05Z"/><path class="cls-17" d="M273.57,102.71a2.55,2.55,0,0,1,.82-.93,41.71,41.71,0,0,1,4.26-.62l6.56.59a1.31,1.31,0,0,1-1.24.77c-1,.08-2.2.07-2.2.07a4,4,0,0,1-1.8,1.08,4.89,4.89,0,0,1-3.64-.22c-1.06-.64-1.89.21-2.3-.48A.48.48,0,0,0,273.57,102.71Z"/><path class="cls-17" d="M286.27,92.14a11.85,11.85,0,0,1-.83,1.81.82.82,0,0,1-.41.43,8.07,8.07,0,0,0,.62-2.95c-.11.34-.24.67-.37,1a8,8,0,0,1-.35.72,8.58,8.58,0,0,1-1.31,1.64A10.41,10.41,0,0,1,282.48,96c-.86.67-.92.62-1.86,1.26a4.55,4.55,0,0,0-1.05.78,2.09,2.09,0,0,0-.22.48A9.18,9.18,0,0,1,277,102l2.17.41a3.54,3.54,0,0,0,2.25-1.26,5.74,5.74,0,0,0,1.16-2.36,1.51,1.51,0,0,1,.25-.58,2.24,2.24,0,0,1,.43-.31,1.84,1.84,0,0,0,.62-.65.93.93,0,0,1-.58.18,15.71,15.71,0,0,0,1.55-1.28,3.84,3.84,0,0,0,1.1-1.49,1.76,1.76,0,0,1-.69.58A5.63,5.63,0,0,0,286.27,92.14Z"/><path class="cls-17" d="M274.49,102.26a.1.1,0,0,0-.12,0,.13.13,0,0,0,0,.12.2.2,0,0,0,.17.17.2.2,0,0,0,.2-.14.19.19,0,0,0-.11-.21.37.37,0,0,0-.18,0"/><path class="cls-17" d="M273.69,102.52a1.32,1.32,0,0,0-.77.43c-.21.34-.23.63-.18.64s.08-.18.51-.33a6.41,6.41,0,0,1,.85-.25Z"/><path class="cls-17" d="M277.9,100.65l-2.22-2A4.46,4.46,0,0,1,275,98c-.42-.58-.54-1.33-1-1.91,0,.17-.08.34-.13.5a4.56,4.56,0,0,0-.53-1.22c0,.19-.09.39-.13.58a4.55,4.55,0,0,0-.75-1.66,1.1,1.1,0,0,0-.26.78,13,13,0,0,0-.7-1.51,7,7,0,0,0,.05,4.24,3.12,3.12,0,0,0,.29.79,2.92,2.92,0,0,0,.62.69,17.2,17.2,0,0,1,3,2.63l3.27-.16A13,13,0,0,1,277.9,100.65Z"/><path class="cls-17" d="M278.77,101.7h0S278.77,101.72,278.77,101.7Z"/><path class="cls-17" d="M282.56,98.78a1.51,1.51,0,0,1,.25-.58,2.24,2.24,0,0,1,.43-.31,1.84,1.84,0,0,0,.62-.65.93.93,0,0,1-.58.18,15.71,15.71,0,0,0,1.55-1.28,3.84,3.84,0,0,0,1.1-1.49,1.76,1.76,0,0,1-.69.58,5.63,5.63,0,0,0,1-3.09,11.85,11.85,0,0,1-.83,1.81.82.82,0,0,1-.41.43,8.07,8.07,0,0,0,.62-2.95c-.11.34-.24.67-.37,1a8,8,0,0,1-.35.72,8.58,8.58,0,0,1-1.31,1.64c-.37.4-.74.79-1.14,1.16l1.9-.92-1,1.2,1.07-.5a9.93,9.93,0,0,0-2,2.21,1.7,1.7,0,0,0,0,1.25Z"/><path class="cls-17" d="M275,98c-.42-.58-.54-1.33-1-1.91,0,.17-.08.34-.13.5a4.56,4.56,0,0,0-.53-1.22c0,.19-.09.39-.13.58a4.55,4.55,0,0,0-.75-1.66,1.1,1.1,0,0,0-.26.78,13,13,0,0,0-.7-1.51,7,7,0,0,0,.05,4.24,3.12,3.12,0,0,0,.29.79l.09-1.15s.05-1.51.46-.92S273.63,98,273.63,98l-.17-1s.58.89.94,1A.7.7,0,0,0,275,98Z"/><path class="cls-17" d="M279.48,98.15h0s0,0,0,0a.08.08,0,0,0,0,.06l-.1.21c-.08.19-.2.46-.36.78s-.36.72-.59,1.14c-.12.21-.25.42-.4.64a1.92,1.92,0,0,1-.26.32.68.68,0,0,1-.21.06l-.21,0c-1.1.17-2.1.25-2.82.36a.75.75,0,0,0-.41.22,1.87,1.87,0,0,0-.24.27c-.12.16-.18.26-.18.26s0,0,0-.08l.12-.2a2.6,2.6,0,0,1,.24-.29.73.73,0,0,1,.43-.24c.72-.13,1.72-.22,2.82-.39l.2,0,.17-.05a3.61,3.61,0,0,0,.25-.3c.14-.21.27-.43.39-.64.24-.41.44-.79.61-1.12l.39-.76.11-.21,0,0s0,0,0,0Z"/><path class="cls-17" d="M283.42,96.14l0,.06a1,1,0,0,1-.11.18,2.57,2.57,0,0,1-.5.56,7.88,7.88,0,0,1-.93.62c-.18.11-.37.22-.55.35a2.49,2.49,0,0,0-.47.5,7.92,7.92,0,0,0-.57,1.23,4.69,4.69,0,0,1-.52,1,3.25,3.25,0,0,1-.48.58l-.15.15-.06,0s.07-.08.18-.21a5.61,5.61,0,0,0,.46-.59,5.23,5.23,0,0,0,.5-1,6.51,6.51,0,0,1,.57-1.25,2,2,0,0,1,.49-.52c.19-.14.38-.24.56-.35a6.83,6.83,0,0,0,.93-.6,3.56,3.56,0,0,0,.52-.53C283.36,96.22,283.41,96.13,283.42,96.14Z"/><path class="cls-17" d="M279,103.15a.65.65,0,0,1-.76-.11s.17.06.38.09S279,103.12,279,103.15Z"/><path class="cls-17" d="M279.91,103a1.12,1.12,0,0,1-.67.12,1.07,1.07,0,0,1-.64-.22s.28.1.65.13S279.9,103,279.91,103Z"/><path class="cls-17" d="M282.28,103.35l-.93-.06a1.68,1.68,0,0,0-.39,0,1.82,1.82,0,0,0,.38.07c.24,0,.57.07.93.09s.7,0,.93,0a1.81,1.81,0,0,0,.39,0,1.62,1.62,0,0,0-.38,0Z"/><path class="cls-17" d="M219.74,65.62a1.05,1.05,0,0,0-.3,0,.73.73,0,0,0-.41.3.38.38,0,0,0,.15,0,3.33,3.33,0,0,1,.63,0,.4.4,0,0,0-.07-.29"/><path class="cls-17" d="M223.22,66.46a13,13,0,0,1-2.11-.52,12.3,12.3,0,0,1-1.29,1.4c-.24.17-.52.28-.74.47a2.4,2.4,0,0,0-.59,1,26.33,26.33,0,0,0-.9,3.15l.71-.95,0,.57,1-1.6.1.52,2.27-2a12.1,12.1,0,0,0,1.16-1.21Z"/><path class="cls-17" d="M221.29,65.37a4.71,4.71,0,0,0,.66-1.21c.3-.77.39-2.35,1.27-3S226.3,59,226.3,59l-.91,1.28,1.11-.89a4.08,4.08,0,0,1-.94,1.26l.89-.42s-.11,1-.51,1c-.06,0-.31.36-.31.36l.09.23s-1.06,2.26-1.34,2.72-1,1.34-1,1.34Z"/><path class="cls-17" d="M219.71,65.69s0-.43.69-.45a3.56,3.56,0,0,1,.94.06s1.84.49,2.11.64a8.79,8.79,0,0,0,2.13-.3,2.05,2.05,0,0,1-.27,2.46c-1.1,1-1.73.61-1.73.61s-.09-1.16-.57-1.45a3.81,3.81,0,0,1-1.21-.2,11.25,11.25,0,0,1-1.27-1c-.15-.09-.57,0-.72-.14A.24.24,0,0,1,219.71,65.69Z"/><circle class="cls-17" cx="220.13" cy="65.59" r="0.13"/><path class="cls-17" d="M225.72,61.83l-.09-.23s.25-.35.31-.36c.4-.07.51-1,.51-1l-.89.42a4.08,4.08,0,0,0,.94-1.26l-1.11.89L226.3,59s-2.2,1.55-3.08,2.19l1.42-.45-.27.66,1.12-.48a.82.82,0,0,0-.11.67C225.5,61.91,225.72,61.83,225.72,61.83Z"/><path class="cls-17" d="M219.36,70.53l-.1-.52-1,1.6,0-.57-.71.95a26.33,26.33,0,0,1,.9-3.15l0,1,.56-.41v.7l.48-.45Z"/><path class="cls-17" d="M224.59,67.66s-.07,0-.19-.1-.31-.11-.5-.19a1.9,1.9,0,0,1-.63-.43,7.22,7.22,0,0,0,.65.37c.19.08.37.14.5.21S224.6,67.65,224.59,67.66Z"/><path class="cls-17" d="M224.84,67.25a2.06,2.06,0,0,1-.72-.18,2.33,2.33,0,0,1-.65-.35s.3.15.68.29S224.84,67.23,224.84,67.25Z"/><path class="cls-17" d="M223.1,67.19l-.1,0a1.3,1.3,0,0,1-.29.08,1.1,1.1,0,0,1-.45,0,1.25,1.25,0,0,1-.5-.2,3.92,3.92,0,0,1-.78-.6l-.21-.22-.06-.08a3.16,3.16,0,0,1,.3.27,4.8,4.8,0,0,0,.78.57,1.21,1.21,0,0,0,.91.2C222.94,67.23,223.09,67.18,223.1,67.19Z"/><path class="cls-17" d="M224.53,61l-.14.15-.38.4c-.17.17-.37.36-.58.58a.86.86,0,0,0-.22.41,2.15,2.15,0,0,0,0,.51,3.59,3.59,0,0,1-.08,1,2.33,2.33,0,0,1-.66,1.19l-.12.09-.05,0a2.32,2.32,0,0,0,.49-.57,3.09,3.09,0,0,0,.29-.75,4,4,0,0,0,.07-1,2.34,2.34,0,0,1,0-.53,1,1,0,0,1,.24-.43l.58-.57.4-.38Z"/><path class="cls-17" d="M225.57,62.13l-.08.06-.24.15a4.85,4.85,0,0,1-.83.36,4.21,4.21,0,0,1-.89.19,1.63,1.63,0,0,1-.28,0h-.1l.37-.06a5.17,5.17,0,0,0,.88-.21,5.4,5.4,0,0,0,.83-.34A2.13,2.13,0,0,1,225.57,62.13Z"/><path class="cls-17" d="M225.61,61.22s0,0-.05.09a1.15,1.15,0,0,1-.22.19,2.36,2.36,0,0,1-.39.19,4.34,4.34,0,0,1-.48.2c-.35.14-.66.25-.89.33s-.38.12-.38.11a1.42,1.42,0,0,1,.36-.15l.89-.35.48-.19a2.74,2.74,0,0,0,.38-.18A1,1,0,0,0,225.61,61.22Z"/><path class="cls-17" d="M224.78,63.29s-.05.08-.2.14a3.83,3.83,0,0,1-.57.15,3.15,3.15,0,0,1-.59.1.46.46,0,0,1-.24-.06s.09,0,.24,0a3.36,3.36,0,0,0,.58-.11l.57-.13A2.28,2.28,0,0,0,224.78,63.29Z"/><path class="cls-17" d="M218.81,69.67a.8.8,0,0,1,0-.15,2,2,0,0,1,.2-.38,1.8,1.8,0,0,1,.43-.45,4,4,0,0,1,.68-.36,3.15,3.15,0,0,0,.66-.36,3.23,3.23,0,0,0,.46-.41,3.51,3.51,0,0,0,.33-.47.71.71,0,0,1-.06.14,2.21,2.21,0,0,1-.24.35,2.36,2.36,0,0,1-.45.44,3.62,3.62,0,0,1-.68.36,3.75,3.75,0,0,0-.66.36,1.75,1.75,0,0,0-.43.43A2.33,2.33,0,0,0,218.81,69.67Z"/><path class="cls-17" d="M219.79,69.93s.08-.29.1-.66-.07-.65,0-.66a1.52,1.52,0,0,1,.11.66A1.4,1.4,0,0,1,219.79,69.93Z"/><path class="cls-17" d="M220.55,69.31a4,4,0,0,1,0-.48c0-.26-.06-.48,0-.48a1,1,0,0,1,.1.48A1.37,1.37,0,0,1,220.55,69.31Z"/><path class="cls-17" d="M221.18,68.8a3.28,3.28,0,0,1-.09-.47,3.86,3.86,0,0,1-.1-.48,1.19,1.19,0,0,1,.16.46A1.54,1.54,0,0,1,221.18,68.8Z"/><path class="cls-17" d="M221.88,67.75s-.09,0-.18-.12-.15-.15-.13-.16.09,0,.18.11S221.89,67.74,221.88,67.75Z"/><path class="cls-17" d="M223.57,65.54a2,2,0,0,1-.43-.28,2.22,2.22,0,0,1-.4-.32,1.77,1.77,0,0,1,.43.27A2.54,2.54,0,0,1,223.57,65.54Z"/><path class="cls-17" d="M224.38,64.49a1.6,1.6,0,0,1-.71.16c-.2,0-.38,0-.51,0a1,1,0,0,1-.21,0,.43.43,0,0,1,.21,0h.51A5.79,5.79,0,0,0,224.38,64.49Z"/><path class="cls-17" d="M316.41,104.24a.79.79,0,0,0-.26,0,.66.66,0,0,0-.36.26h.14a3.25,3.25,0,0,1,.54,0,.34.34,0,0,0-.06-.25"/><path class="cls-17" d="M319.41,105a9.5,9.5,0,0,1-1.82-.45,10.69,10.69,0,0,1-1.11,1.21,6.89,6.89,0,0,0-.64.4,2,2,0,0,0-.5.89,21.47,21.47,0,0,0-.78,2.71l.61-.81,0,.49L316,108l.09.44,2-1.72a10.68,10.68,0,0,0,1-1Z"/><path class="cls-17" d="M317.74,104a4.05,4.05,0,0,0,.58-1c.25-.66.33-2,1.09-2.57s2.65-1.89,2.65-1.89l-.79,1.1,1-.76a3.55,3.55,0,0,1-.81,1.08l.77-.36s-.1.83-.45.89c0,0-.26.31-.26.31l.08.2s-.91,1.94-1.16,2.33-.86,1.16-.86,1.16Z"/><path class="cls-17" d="M316.38,104.3s.05-.37.6-.39a2.66,2.66,0,0,1,.81.06s1.58.42,1.81.54a7.09,7.09,0,0,0,1.83-.25,1.75,1.75,0,0,1-.22,2.11c-1,.84-1.49.53-1.49.53s-.08-1-.49-1.25a3.23,3.23,0,0,1-1.05-.18,9.72,9.72,0,0,1-1.09-.83c-.13-.08-.49,0-.62-.13A.21.21,0,0,1,316.38,104.3Z"/><path class="cls-17" d="M316.86,104.21a.11.11,0,0,1-.11.12.12.12,0,0,1-.12-.12.11.11,0,0,1,.12-.11A.11.11,0,0,1,316.86,104.21Z"/><path class="cls-17" d="M321.56,101l-.08-.2s.22-.31.26-.31c.35-.06.45-.89.45-.89l-.77.36a3.55,3.55,0,0,0,.81-1.08l-1,.76.79-1.1s-1.9,1.34-2.65,1.89l1.21-.39-.22.57,1-.41a.7.7,0,0,0-.1.57C321.37,101.05,321.56,101,321.56,101Z"/><path class="cls-17" d="M316.09,108.46,316,108l-.85,1.38,0-.49-.61.81a21.47,21.47,0,0,1,.78-2.71l0,.82.47-.34v.59l.42-.38Z"/><path class="cls-17" d="M320.59,106s-.07,0-.17-.08-.27-.09-.43-.17a1.63,1.63,0,0,1-.54-.36s.24.16.56.31c.16.08.32.12.42.18A.59.59,0,0,1,320.59,106Z"/><path class="cls-17" d="M320.8,105.64a1.62,1.62,0,0,1-.62-.15,2.25,2.25,0,0,1-.56-.3s.26.12.58.25S320.8,105.63,320.8,105.64Z"/><path class="cls-17" d="M319.3,105.59l-.09,0-.25.06a.92.92,0,0,1-.38,0,1,1,0,0,1-.43-.17,3.84,3.84,0,0,1-.68-.52l-.17-.18-.06-.08a2.07,2.07,0,0,1,.26.24,4.88,4.88,0,0,0,.67.49,1.24,1.24,0,0,0,.42.17,1.52,1.52,0,0,0,.37,0C319.17,105.62,319.3,105.58,319.3,105.59Z"/><path class="cls-17" d="M320.53,100.3l-.12.13-.33.34-.49.5a.67.67,0,0,0-.19.35,1.6,1.6,0,0,0,0,.44,3,3,0,0,1-.07.86,2.39,2.39,0,0,1-.26.66,1.74,1.74,0,0,1-.31.36l-.1.08,0,0a2.14,2.14,0,0,0,.41-.49,2.05,2.05,0,0,0,.25-.65,3.33,3.33,0,0,0,.07-.85,1.69,1.69,0,0,1,0-.45.67.67,0,0,1,.2-.37l.5-.5.35-.33Z"/><path class="cls-17" d="M321.43,101.23l-.07.06-.2.12a4.6,4.6,0,0,1-.72.32,4.24,4.24,0,0,1-.77.16l-.24,0h-.09a2.94,2.94,0,0,1,.32-.05,5.15,5.15,0,0,0,.76-.17,6.07,6.07,0,0,0,.72-.3A1.89,1.89,0,0,1,321.43,101.23Z"/><path class="cls-17" d="M321.47,100.45a.3.3,0,0,1-.05.08,1.19,1.19,0,0,1-.19.16,3.34,3.34,0,0,1-.33.17l-.42.17c-.3.12-.57.21-.77.28a1.24,1.24,0,0,1-.32.09l.31-.13.76-.29.42-.17.33-.15A1.4,1.4,0,0,0,321.47,100.45Z"/><path class="cls-17" d="M320.75,102.23s-.05.07-.17.12a3.24,3.24,0,0,1-.5.13,2.12,2.12,0,0,1-.5.09.37.37,0,0,1-.21-.06.58.58,0,0,0,.21,0,25.68,25.68,0,0,0,1-.21A1.07,1.07,0,0,0,320.75,102.23Z"/><path class="cls-17" d="M315.61,107.72a.93.93,0,0,1,0-.13,1.45,1.45,0,0,1,.17-.32,1.49,1.49,0,0,1,.37-.39,2.89,2.89,0,0,1,.58-.31,3.39,3.39,0,0,0,.57-.31,2.8,2.8,0,0,0,.39-.35,4.93,4.93,0,0,0,.29-.4.49.49,0,0,1-.06.12,1.91,1.91,0,0,1-.2.3,1.75,1.75,0,0,1-.39.37,3.51,3.51,0,0,1-.58.32,2.78,2.78,0,0,0-.57.3,1.84,1.84,0,0,0-.37.37A2.9,2.9,0,0,0,315.61,107.72Z"/><path class="cls-17" d="M316.45,108a4,4,0,0,0,.08-.57c0-.31,0-.56,0-.57a1.35,1.35,0,0,1,.09.57A1.11,1.11,0,0,1,316.45,108Z"/><path class="cls-17" d="M317.1,107.42s0-.19,0-.42a3.53,3.53,0,0,1,0-.41,1.09,1.09,0,0,1,.09.41A1,1,0,0,1,317.1,107.42Z"/><path class="cls-17" d="M317.65,107a2.19,2.19,0,0,1-.08-.41,2.9,2.9,0,0,1-.08-.41,1.07,1.07,0,0,1,.13.4A1.14,1.14,0,0,1,317.65,107Z"/><path class="cls-17" d="M318.25,106.07s-.08,0-.15-.1-.13-.13-.12-.14.08,0,.16.1S318.26,106.06,318.25,106.07Z"/><path class="cls-17" d="M319.7,104.17a2.41,2.41,0,0,1-.37-.24,1.72,1.72,0,0,1-.33-.28,1.85,1.85,0,0,1,.36.24A1.62,1.62,0,0,1,319.7,104.17Z"/><path class="cls-17" d="M320.4,103.26a1.16,1.16,0,0,1-.6.14,2.76,2.76,0,0,1-.44,0h-.19a.52.52,0,0,1,.19,0h.43A3.53,3.53,0,0,0,320.4,103.26Z"/><rect class="cls-7" x="7.77" y="236.3" width="719.17" height="216.55"/><rect class="cls-18" x="7.77" y="236.3" width="719.17" height="216.55"/><g class="cls-10"><path class="cls-7" d="M614,372.31c-1.52-11.59-14.08-18-25.25-21.41-81-25-168.43-1.16-253-6.61l122.89-21c5.93-1,13.76-5.5,10.89-10.79-1.64-3-5.73-3.36-9.15-3.34l-68.76.35-34,.18-17,.09c-5.12,0-12.26-1.08-16.95.32,20.47,7,43.6,8.93,65.08,7.66-27.43,2.56-55,5.27-82.63,4.57-27.29-.7-54.35-5.05-80.95-11-19.76-4.46-39.31-9.82-58.81-15.35-47.86-13.57-95.89-26.86-142.56-44.14-5.1-1.92-10.42-3.81-15.64-5.95V353.21C128.33,392,283,427.58,355.53,427.58a1254.8,1254.8,0,0,0,158.21-10c26-3.31,52.2-7.51,76.44-17.51C602.33,395,615.69,385.34,614,372.31Z"/></g><path class="cls-7" d="M251,273.41c74.12,1.83,148.16,2.29,222-.22Q362,274,251,273.41Z"/><path class="cls-7" d="M305.74,267.24c40.27,1.82,80.5,2.28,120.6-.23Q366.05,267.77,305.74,267.24Z"/><path class="cls-7" d="M301.59,281c40.27,1.83,80.5,2.29,120.6-.22Q361.91,281.58,301.59,281Z"/><path class="cls-7" d="M306.82,292.78a666.28,666.28,0,0,0,71.51-.13Q342.59,293.1,306.82,292.78Z"/><g class="cls-19"><path class="cls-17" d="M457.88,269.85c.12,0,.15,0,.07,0Z"/><path class="cls-17" d="M275.82,269.91l1.06.26-.09-.45Z"/><path class="cls-17" d="M229.43,266.2l1,.27-.09-.45Z"/><path class="cls-17" d="M175.07,266.19l.14,0v-.06Z"/><polygon class="cls-17" points="183.37 265.41 184.13 265.6 184.06 265.28 183.37 265.41"/><path class="cls-17" d="M309.59,269.67l-.08.27.48.13-.09-.46Z"/><polygon class="cls-17" points="188.27 265.95 188.25 265.83 187.56 265.96 188.88 266.31 188.8 266.56 189.27 266.5 189.22 266.24 188.27 265.95"/><path class="cls-17" d="M126.62,240.76,7.77,236.3v21.92L136,260c.31,1.59.74,3.78,1.25,6.41v0l0,0,1.06.33-.92.11h-.08V267c.4,2.58.84,5.46,1.31,8.53l.06.4.13-.39.36-1.11,1.64-5,0-.06-.08,0-1.13-.33,1.18-.21h.05v0c.64-1.93,1.23-3.71,1.74-5.27l.22,1.09,1.09.34-1,.12,1.05,6.79,1.59-4.88-1.13-.34,1.18-.2,1.58-4.74-1.42-.37,1.48-.28.28-.82,2.29,0,1,4.45,1.81.48-1.63.17,1.75,9.67,2.65-6.94-1.89-.49,2-.29,1.94-5,.54,2.34,1.08.29-1,.1,1,5.82,1.6-4.18-1.14-.29,1.19-.18,1.58-4.05-1.42-.32,1.48-.24.46-1.18,1.38,0c.29,1.3.67,3,1.12,5v0l0,0,1.06.28-.92.09h-.08v.06c.39,2.2.84,4.67,1.31,7.3l.06.34.12-.33c.12-.31.25-.63.37-.95.56-1.49,1.12-2.93,1.63-4.29l0-.06-.08,0-1.12-.29,1.17-.17h.06v0c.73-1.9,1.4-3.63,2-5.1l0-.05H171l-1.56-.34,1.62-.27h0v0l.22-.56.77,3.31,1.09.29-1,.1,1.05,5.82,1.59-4.18-1.13-.29,1.18-.17.81-2.09c.07.28.13.57.2.87v0h0l.93.25-.8.08H176v0c.34,1.91.72,4.06,1.13,6.34l.06.29.11-.28c.1-.27.2-.55.31-.83l1.42-3.72,0,0-.07,0-1-.25.8-.12,0,.25.1-.27h.12v0l1.51-3.91.19.81.94.25-.85.09.91,5,1.38-3.62-1-.25,1-.15,1.09-2.79.48,2.08,1,.27-.91.1,1,5.41,1.48-3.89-1.05-.27,1.1-.16,1.12-2.89.69,3.79.61.19-.56.07.67,3.7,2.29-6-1.63-.42,1.7-.25,1.08-2.75h1l.11.45.94.25-.85.09.91,5,1.38-3.62-1-.25,1-.16.69-1.76,3.08.05c.07.33.15.67.23,1v0h0l.92.25-.8.08H201v.05c.34,1.91.73,4.06,1.14,6.33l.05.3.11-.29c.1-.27.21-.54.31-.82l1.42-3.72,0-.05-.07,0-1-.25,1-.15h.05v0c.37-1,.71-1.85,1-2.68l1.57,0v0l.94.25-.85.09.92,5,1.38-3.62-1-.25,1-.15.52-1.34,2.56,0,.36,2,.77-2,4,.06,1.21,6.69,1.89-5-1.35-.35,1.41-.21.44-1.11,4.23.05c.21,1,.47,2.08.75,3.34v0h0l.92.25-.8.08H226v0c.34,1.91.73,4.06,1.13,6.34l.06.29.11-.28c.1-.27.21-.55.31-.83l1.42-3.72,0-.05-.07,0-1-.25,1-.15h.05v0l1.51-3.91.19.81.94.25-.85.09.91,5,1.38-3.62-1-.25,1-.15,1.24-3.18,4.64.07.73.19-1.42.15,1.52,8.38,2.3-6-1.64-.42,1.7-.25.78-2,1.49,0h0l.91,5,1.38-3.62-1-.25,1-.16.38-1,3.56.05,0,.25v0h0l.92.25-.8.08H251v.05c.34,1.91.73,4.06,1.14,6.33l.05.3.11-.29c.1-.27.21-.54.31-.82.5-1.29,1-2.55,1.42-3.72l0,0-.07,0-1-.25,1-.15h0v0c.26-.66.5-1.3.74-1.9l2,0,.84,4.62,1.38-3.62-1-.25,1-.15.22-.56,3,0,.23,1.22.46-1.21,4.47.06,1.07,5.91,1.9-5-1.36-.35,1.41-.21.13-.33H271l.21.94,1.11,4.93v0h0l.92.25-.8.08h-.07v.05c.35,1.91.73,4.05,1.14,6.33l.05.3.11-.29c.1-.27.21-.55.32-.82.49-1.3,1-2.55,1.41-3.73l0-.05-.07,0c-.33-.08-.66-.16-1-.25l1-.15h0v0c.56-1.44,1.07-2.76,1.51-3.92l.19.81.94.25-.85.09.91,5,1.39-3.62-1-.25,1-.15,1.37-3.52-1.23-.27,1.28-.21.67-1.69,2.41,0,.53,2.32,1.57.42-1.41.15,1.51,8.38,2.3-6-1.64-.42,1.71-.25,1.68-4.32.47,2,.94.25-.85.09.92,5,1.38-3.62-1-.25,1-.15,1.36-3.5,2,0,.63,2.78v0h0l.92.24-.79.08h-.07v.05c.34,1.91.72,4.06,1.13,6.33l.05.3.11-.28.32-.83,1.42-3.72,0-.05-.08,0-1-.25,1-.15h0l0,0,1.7-4.41h.5l.41,1.77.94.25-.85.09.91,5,1.1-2.89c.08.35.16.71.25,1.08v0h0l.93.24-.8.09h-.07v0c.34,1.91.72,4.06,1.13,6.34l.06.29.11-.28c.1-.28.2-.55.31-.83l1.42-3.72,0-.05-.07,0-1-.25,1-.15h.05v0l1.51-3.91.19.81.94.25-.85.09.91,5,1.38-3.62-1-.25,1-.16,1.11-2.82.74,4.09.28.09-.26,0,.34,1.9,1.9-5-1.35-.35,1.41-.21.7-1.81.17.72,1.56.42-1.41.15,1.52,8.38,2.29-6-1.63-.42,1.7-.25,1.54-3.94h.24l.38,1.64.94.25-.85.08.91,5,1.38-3.62-1-.26,1-.15,1.15-2.94,2.35,0c.15.68.32,1.42.5,2.21v0h0l.92.25-.8.08h-.07v.05c.34,1.91.73,4.05,1.14,6.33l.05.3.11-.29c.1-.27.21-.54.31-.82l1.42-3.72,0-.05-.07,0-1-.25,1-.16h.05v0c.54-1.41,1.05-2.71,1.49-3.86h.84l.28,1.21.94.25-.85.09.92,5,1.38-3.62-1-.25,1-.16,1-2.51,1.89,0,.57,3.19,1.07-2.8-.76-.2.8-.11,0-.06,3.85.06.16.71.88.23-.79.08.85,4.7,1.28-3.37-.91-.24,1-.14.75-1.93c1.15-.39,106.67-4.8,109.07-4.68C452.46,257.78,126.62,240.76,126.62,240.76Zm14.62,21.51,1.11-.22.11.53Z"/><path class="cls-17" d="M304.49,271l.51.16,0-.24Z"/><polygon class="cls-17" points="314.06 268.68 312.89 268.9 313.71 269.11 313.71 269.07 314.62 268.96 314.6 268.84 314.06 268.68"/></g><path class="cls-17" d="M112.34,256.61s353.23,1.65,348.3,1.65S7.77,220.53,7.77,220.53v36.08Z"/><polygon class="cls-17" points="211.53 228.95 212.53 234.24 211.53 234.5 212.53 234.82 213.54 239.97 212.28 240.22 213.54 240.66 214.21 244.03 208.17 244.03 209.97 236.49 210.94 236.24 210.1 236.02 211.53 228.95"/><polygon class="cls-17" points="222.5 228.07 223.88 235.34 222.5 235.69 223.88 236.14 225.27 243.21 223.54 243.56 225.27 244.16 226.19 248.79 217.89 248.79 220.37 238.43 221.69 238.08 220.54 237.78 222.5 228.07"/><polygon class="cls-17" points="216.04 234.18 216.81 238.28 216.04 238.48 216.81 238.73 217.59 242.72 216.62 242.91 217.59 243.25 218.11 245.86 213.44 245.86 214.84 240.02 215.58 239.83 214.93 239.66 216.04 234.18"/><polygon class="cls-17" points="199.38 227.27 200.38 232.56 199.38 232.82 200.38 233.14 201.39 238.29 200.13 238.55 201.39 238.98 202.06 242.35 196.02 242.35 197.82 234.81 198.79 234.56 197.95 234.34 199.38 227.27"/><polygon class="cls-17" points="185.98 222.95 186.99 228.24 185.98 228.5 186.99 228.82 188 233.97 186.74 234.22 188 234.66 188.66 238.03 182.63 238.03 184.43 230.49 185.4 230.24 184.56 230.02 185.98 222.95"/><polyline class="cls-17" points="188.67 246.63 191.66 234.1 193.26 233.67 191.87 233.31 194.24 221.56 195.91 230.36 194.24 230.78 195.91 231.32 197.59 239.88 195.5 240.3 197.59 241.03 198.7 246.63"/><polyline class="cls-17" points="202.1 244.03 204.36 234.57 205.57 234.25 204.52 233.97 206.31 225.1 207.57 231.74 206.31 232.06 207.57 232.47 208.83 238.94 207.25 239.25 208.83 239.8 209.67 244.03"/><path class="cls-17" d="M209.67,244a.31.31,0,0,1,0-.07l-.05-.21c0-.2-.1-.47-.17-.82-.16-.74-.37-1.79-.65-3.12l0,0-1.58-.54-.19-.07.2,0,1.58-.33,0,.08c-.37-1.87-.8-4.06-1.28-6.46l0,.06-1.26-.41-.26-.09.27-.06,1.26-.32-.06.09-1-5.44-.23-1.2h.17c-.65,3.19-1.26,6.19-1.8,8.87l-.06-.09,1.06.28.26.07-.26.07-1.21.31,0,0c-.69,2.85-1.26,5.21-1.67,6.87l-.47,1.91c-.06.21-.1.38-.13.5a1.5,1.5,0,0,1-.05.17s0-.06,0-.17l.11-.51c.1-.45.25-1.1.44-1.92l1.61-6.88v0h0l1.21-.32v.14l-1.05-.27-.07,0V234c.54-2.68,1.14-5.69,1.78-8.88l.09-.41.08.41c.07.4.15.8.23,1.21.35,1.89.7,3.72,1,5.44v.07l-.07,0-1.27.32V232l1.26.41h0v.05c.47,2.4.89,4.6,1.25,6.46V239l-.06,0-1.58.31v-.11l1.58.55h0v0c.25,1.33.46,2.39.6,3.12.06.36.11.64.15.83s0,.16,0,.22A.42.42,0,0,1,209.67,244Z"/><polyline class="cls-17" points="177.51 237.47 179.77 228 180.98 227.69 179.93 227.41 181.72 218.54 182.98 225.18 181.72 225.5 182.98 225.91 184.24 232.37 182.67 232.69 184.24 233.24 185.09 237.47"/><path class="cls-17" d="M185.09,237.47s0,0,0-.07l0-.21c-.05-.2-.1-.47-.18-.83-.15-.73-.37-1.78-.64-3.11l0,0-1.58-.54-.2-.06.2,0,1.58-.33,0,.07c-.37-1.86-.8-4-1.27-6.46l.05.06-1.27-.4-.26-.09.27-.07,1.26-.32-.06.1c-.32-1.72-.67-3.55-1-5.44-.08-.41-.16-.81-.23-1.21h.16c-.65,3.19-1.26,6.2-1.8,8.88l-.05-.09,1.05.28.27.06-.27.07-1.21.32.05,0c-.69,2.85-1.27,5.21-1.67,6.87-.21.82-.37,1.46-.48,1.91l-.13.5-.05.17,0-.18c0-.12.06-.29.11-.5.1-.45.25-1.1.44-1.92l1.62-6.88v0h0l1.2-.32v.13l-1.05-.27h-.07l0-.07c.53-2.68,1.14-5.69,1.78-8.88l.08-.42.08.42c.08.4.15.8.23,1.21.36,1.89.71,3.72,1,5.44v.07l-.07,0-1.26.32v-.16l1.27.42h0v0c.46,2.41.89,4.61,1.25,6.47v.06h-.06l-1.58.32v-.11l1.58.55h0v0c.26,1.33.46,2.39.6,3.12.07.36.12.63.15.83l0,.22A.32.32,0,0,1,185.09,237.47Z"/><polygon class="cls-17" points="261.33 234.44 262.34 239.73 261.33 239.99 262.34 240.31 263.35 245.46 262.09 245.72 263.35 246.15 264.02 249.52 257.98 249.52 259.78 241.98 260.75 241.73 259.91 241.51 261.33 234.44"/><polygon class="cls-17" points="272.31 233.56 273.69 240.83 272.31 241.18 273.69 241.63 275.08 248.71 273.35 249.05 275.08 249.65 276 254.28 267.7 254.28 270.18 243.92 271.5 243.57 270.35 243.27 272.31 233.56"/><polygon class="cls-17" points="265.85 239.68 266.62 243.77 265.85 243.97 266.62 244.22 267.4 248.21 266.43 248.41 267.4 248.74 267.92 251.35 263.25 251.35 264.64 245.51 265.39 245.32 264.74 245.15 265.85 239.68"/><polygon class="cls-17" points="249.18 232.76 250.19 238.06 249.18 238.31 250.19 238.63 251.2 243.78 249.94 244.04 251.2 244.47 251.87 247.84 245.83 247.84 247.63 240.3 248.6 240.05 247.76 239.83 249.18 232.76"/><polygon class="cls-17" points="235.79 228.44 236.8 233.73 235.79 233.99 236.8 234.31 237.8 239.46 236.55 239.72 237.8 240.15 238.47 243.52 232.44 243.52 234.24 235.98 235.21 235.73 234.37 235.51 235.79 228.44"/><polyline class="cls-17" points="238.47 252.12 241.47 239.59 243.07 239.16 241.68 238.8 244.05 227.05 245.72 235.85 244.05 236.27 245.72 236.81 247.4 245.37 245.3 245.79 247.4 246.52 248.51 252.12"/><polyline class="cls-17" points="251.91 249.52 254.17 240.06 255.38 239.74 254.32 239.47 256.11 230.59 257.38 237.24 256.11 237.55 257.38 237.96 258.64 244.43 257.06 244.75 258.64 245.29 259.48 249.52"/><path class="cls-17" d="M259.48,249.52a.31.31,0,0,1,0-.07l0-.21c0-.2-.1-.47-.18-.82-.15-.74-.36-1.79-.64-3.12l0,0L257,244.8l-.19-.07.2,0,1.58-.33-.05.08c-.37-1.87-.8-4.06-1.28-6.46l.05.06-1.26-.41-.26-.09.26-.06,1.27-.32-.06.09-1-5.44-.23-1.2h.17c-.65,3.19-1.26,6.19-1.8,8.87l-.06-.09,1.06.28.26.07-.26.07-1.22.31,0-.05c-.69,2.85-1.26,5.21-1.67,6.87l-.47,1.91c-.06.22-.1.38-.13.5s-.05.17-.06.17,0-.06,0-.17l.11-.51c.1-.45.25-1.09.43-1.91.4-1.67,1-4,1.62-6.89v0h0l1.21-.32v.14l-1.05-.27-.07,0v-.07c.54-2.68,1.14-5.68,1.78-8.88l.09-.41.08.42c.07.39.15.8.22,1.2l1,5.44v.08h-.07l-1.27.32v-.15l1.26.41h0v0c.47,2.4.89,4.6,1.25,6.46v.07h-.06l-1.58.31v-.11l1.58.55h0v0c.25,1.33.45,2.39.6,3.13.06.35.11.63.15.83l0,.21A.42.42,0,0,1,259.48,249.52Z"/><polyline class="cls-17" points="227.32 242.96 229.58 233.49 230.79 233.18 229.74 232.9 231.53 224.03 232.79 230.67 231.53 230.99 232.79 231.4 234.05 237.86 232.47 238.18 234.05 238.73 234.9 242.96"/><path class="cls-17" d="M234.9,243s0,0,0-.07l0-.21c-.05-.2-.11-.47-.18-.83-.15-.73-.37-1.78-.64-3.11l0,0-1.58-.53-.2-.07.2,0,1.58-.33,0,.08c-.37-1.87-.8-4.06-1.27-6.46l.05.05-1.27-.4-.26-.09.27-.07,1.26-.32-.06.1c-.33-1.72-.67-3.55-1-5.44-.08-.41-.16-.81-.23-1.21h.16c-.65,3.19-1.26,6.2-1.8,8.88l-.05-.09,1.05.28.26.07-.26.06-1.21.32.05-.05c-.7,2.85-1.27,5.21-1.67,6.87-.21.82-.37,1.46-.48,1.91-.05.21-.1.38-.13.5l-.05.17,0-.17c0-.13.06-.3.11-.51.1-.45.25-1.1.44-1.92.39-1.66.94-4,1.61-6.88v0h0l1.21-.32v.13l-1.05-.27h-.07l0-.07c.53-2.68,1.14-5.69,1.78-8.88l.08-.41.08.41c.08.4.15.8.23,1.21.36,1.89.7,3.72,1,5.44v.07l-.07,0-1.26.32v-.15l1.26.41h.05v0c.46,2.4.88,4.6,1.24,6.46l0,.06h-.06l-1.58.32v-.11l1.58.55h0v0c.26,1.33.46,2.39.6,3.12.06.36.12.64.15.83l0,.22A.42.42,0,0,1,234.9,243Z"/><polygon class="cls-17" points="307.88 234.91 308.88 240.2 307.88 240.46 308.88 240.78 309.89 245.93 308.63 246.19 309.89 246.62 310.56 249.99 304.52 249.99 306.32 242.45 307.29 242.2 306.45 241.98 307.88 234.91"/><polygon class="cls-17" points="318.85 234.03 320.23 241.3 318.85 241.65 320.23 242.1 321.62 249.17 319.89 249.52 321.62 250.12 322.54 254.75 314.24 254.75 316.72 244.39 318.05 244.04 316.89 243.74 318.85 234.03"/><polygon class="cls-17" points="312.38 240.14 313.16 244.24 312.38 244.44 313.16 244.69 313.94 248.68 312.97 248.87 313.94 249.21 314.46 251.82 309.79 251.82 311.18 245.98 311.93 245.79 311.28 245.62 312.38 240.14"/><polygon class="cls-17" points="295.72 233.23 296.73 238.52 295.72 238.78 296.73 239.1 297.74 244.25 296.48 244.51 297.74 244.94 298.41 248.31 292.37 248.31 294.17 240.77 295.14 240.52 294.3 240.3 295.72 233.23"/><polygon class="cls-17" points="282.33 228.91 283.34 234.2 282.33 234.46 283.34 234.78 284.34 239.93 283.09 240.18 284.34 240.62 285.01 243.99 278.98 243.99 280.78 236.45 281.75 236.2 280.91 235.98 282.33 228.91"/><polyline class="cls-17" points="285.01 252.59 288.01 240.06 289.61 239.63 288.22 239.27 290.59 227.52 292.26 236.32 290.59 236.74 292.26 237.28 293.94 245.84 291.84 246.26 293.94 246.99 295.05 252.59"/><polyline class="cls-17" points="298.44 249.99 300.71 240.53 301.92 240.21 300.87 239.94 302.65 231.06 303.92 237.71 302.65 238.02 303.92 238.43 305.18 244.9 303.6 245.21 305.18 245.76 306.02 249.99"/><path class="cls-17" d="M306,250a.31.31,0,0,1,0-.07l-.05-.21c0-.2-.1-.47-.18-.82-.15-.74-.36-1.79-.64-3.12l0,0-1.58-.54-.19-.07.2,0,1.58-.33-.05.08c-.37-1.87-.8-4.06-1.28-6.46l.05.06-1.26-.41-.26-.09.26-.06,1.27-.32-.06.09-1-5.44c-.08-.4-.15-.81-.23-1.2h.17c-.65,3.19-1.26,6.19-1.8,8.87l-.06-.09,1.06.28.26.07-.26.07-1.22.31,0-.05c-.69,2.85-1.26,5.21-1.67,6.87l-.47,1.91c-.06.21-.1.38-.13.5s-.05.17-.06.17,0-.06,0-.17.06-.29.11-.51c.1-.45.25-1.09.44-1.91l1.61-6.89v0h0l1.21-.32v.14l-1-.27-.07,0v-.07c.54-2.68,1.14-5.68,1.78-8.88l.09-.41.08.41c.07.4.15.8.22,1.21l1,5.44v.07l-.07,0-1.27.32V238l1.26.41h0v0c.47,2.4.89,4.6,1.25,6.46v.06l-.06,0-1.58.31v-.11l1.58.55h0v0l.6,3.13.15.82,0,.22A.42.42,0,0,1,306,250Z"/><polyline class="cls-17" points="273.86 243.43 276.12 233.96 277.33 233.65 276.28 233.37 278.07 224.5 279.33 231.14 278.07 231.46 279.33 231.87 280.59 238.33 279.01 238.65 280.59 239.2 281.44 243.43"/><path class="cls-17" d="M281.44,243.43s0,0,0-.07l0-.21c-.05-.2-.11-.47-.18-.83-.15-.73-.37-1.78-.64-3.11l0,0L279,238.7l-.2-.06.2,0,1.58-.33-.05.07c-.37-1.86-.8-4.05-1.27-6.46l.05.06-1.27-.4-.26-.09.27-.07,1.26-.32-.06.1c-.33-1.72-.67-3.55-1-5.44-.08-.41-.16-.81-.23-1.21h.16c-.65,3.19-1.26,6.2-1.8,8.88l-.05-.09,1.05.28.26.07-.26.06-1.21.32.05-.05c-.7,2.85-1.27,5.21-1.67,6.87-.21.82-.37,1.46-.48,1.91-.05.21-.1.38-.13.5l-.05.17,0-.18c0-.12.06-.29.11-.5.1-.45.25-1.1.44-1.92.39-1.66.94-4,1.61-6.88v0h0l1.21-.32v.13l-1.05-.27h-.07l0-.07c.53-2.68,1.14-5.69,1.78-8.88l.08-.42.08.42c.08.4.15.8.23,1.21.36,1.89.7,3.72,1,5.44v.07l-.07,0-1.26.32v-.15l1.26.41h0v.05c.46,2.4.88,4.6,1.24,6.46l0,.06h-.06l-1.58.32v-.11l1.58.55h0v0c.26,1.33.46,2.39.6,3.12l.15.83,0,.22A.32.32,0,0,1,281.44,243.43Z"/><polygon class="cls-17" points="340.85 238.59 341.86 243.88 340.85 244.14 341.86 244.47 342.87 249.61 341.61 249.87 342.87 250.3 343.54 253.68 337.5 253.68 339.3 246.13 340.27 245.88 339.43 245.66 340.85 238.59"/><polygon class="cls-17" points="351.68 240.77 352.62 245.7 351.68 245.94 352.62 246.24 353.55 251.04 352.38 251.27 353.55 251.68 354.18 254.82 348.56 254.82 350.24 247.79 351.13 247.56 350.35 247.36 351.68 240.77"/><polygon class="cls-17" points="345.36 243.83 346.14 247.93 345.36 248.12 346.14 248.38 346.92 252.36 345.95 252.56 346.92 252.89 347.44 255.5 342.77 255.5 344.16 249.67 344.91 249.47 344.26 249.3 345.36 243.83"/><polygon class="cls-17" points="328.7 236.91 329.71 242.21 328.7 242.46 329.71 242.79 330.71 247.94 329.46 248.19 330.71 248.63 331.38 252 325.35 252 327.15 244.46 328.11 244.2 327.28 243.98 328.7 236.91"/><polygon class="cls-17" points="315.31 232.59 316.31 237.88 315.31 238.14 316.31 238.47 317.32 243.61 316.06 243.87 317.32 244.3 317.99 247.68 311.95 247.68 313.76 240.13 314.72 239.88 313.88 239.66 315.31 232.59"/><polyline class="cls-17" points="317.99 256.28 320.99 243.74 322.59 243.32 321.2 242.96 323.57 231.2 325.24 240 323.57 240.42 325.24 240.97 326.91 249.53 324.82 249.95 326.91 250.67 328.03 256.28"/><polyline class="cls-17" points="331.42 253.68 333.68 244.21 334.89 243.89 333.84 243.62 335.63 234.74 336.89 241.39 335.63 241.71 336.89 242.12 338.16 248.58 336.58 248.9 338.16 249.44 339 253.68"/><path class="cls-17" d="M339,253.68a.73.73,0,0,1,0-.08l-.05-.21c0-.19-.1-.47-.18-.82-.15-.73-.37-1.79-.64-3.12l0,0-1.58-.54-.2-.07.21,0,1.57-.32,0,.07c-.37-1.86-.81-4.06-1.28-6.46l.05.06-1.26-.41-.26-.08.26-.07,1.26-.32-.06.09c-.32-1.71-.67-3.55-1-5.44-.08-.4-.15-.8-.23-1.2h.16c-.64,3.19-1.25,6.2-1.8,8.87l-.05-.08,1.05.27.27.07-.27.07-1.21.32.05-.05c-.69,2.85-1.27,5.21-1.67,6.87-.2.81-.36,1.46-.48,1.91-.05.21-.1.37-.13.5a.69.69,0,0,1-.05.17s0-.06,0-.18l.11-.5c.11-.46.25-1.1.44-1.92.39-1.66.95-4,1.62-6.89v0h0l1.21-.32V244l-1.06-.27-.06,0v-.07c.54-2.67,1.14-5.68,1.78-8.87l.08-.42.08.42c.08.4.15.8.23,1.2.36,1.89.71,3.72,1,5.44l0,.08-.08,0-1.26.31v-.15l1.26.41,0,0v0c.46,2.41.89,4.6,1.25,6.47v.06h-.06l-1.58.31v-.11l1.57.56h0v0l.6,3.13c.07.35.12.63.15.83l0,.21A.37.37,0,0,1,339,253.68Z"/><polyline class="cls-17" points="306.84 247.11 309.1 237.65 310.31 237.33 309.26 237.06 311.05 228.18 312.31 234.82 311.05 235.14 312.31 235.55 313.57 242.01 311.99 242.33 313.57 242.88 314.41 247.11"/><path class="cls-17" d="M314.41,247.11a.31.31,0,0,1,0-.07l-.05-.21c0-.2-.1-.47-.17-.82-.16-.74-.37-1.79-.65-3.12l0,0-1.58-.54-.19-.07.2,0,1.58-.33-.05.08c-.37-1.87-.8-4.06-1.28-6.46l0,.06-1.26-.41-.26-.09.27-.06,1.26-.32-.06.09-1-5.44c-.07-.4-.15-.81-.23-1.2h.17c-.65,3.19-1.26,6.19-1.8,8.87l-.06-.09,1.06.28.26.07-.26.07-1.21.31.05-.05c-.7,2.85-1.27,5.21-1.68,6.87l-.47,1.91c-.06.21-.1.38-.13.5a1.5,1.5,0,0,1-.05.17s0-.06,0-.17.06-.29.11-.51c.1-.45.25-1.09.44-1.91l1.61-6.89v0h0l1.21-.32v.14l-1.05-.27-.07,0V237c.54-2.68,1.14-5.68,1.78-8.88l.09-.41.08.42c.07.39.15.79.23,1.2.35,1.89.7,3.72,1,5.44v.07l-.07,0-1.27.32v-.15l1.26.41h.05v0c.47,2.4.89,4.6,1.25,6.46v.06l-.06,0-1.58.31v-.11l1.58.55h0v0c.25,1.33.46,2.39.6,3.13.06.35.11.63.15.83l0,.21A.42.42,0,0,1,314.41,247.11Z"/><polygon class="cls-17" points="177.66 219.38 178.82 225.48 177.66 225.78 178.82 226.15 179.98 232.09 178.53 232.38 179.98 232.88 180.76 236.77 173.8 236.77 175.88 228.07 176.99 227.78 176.02 227.53 177.66 219.38"/><polygon class="cls-17" points="190.15 221.89 191.22 227.58 190.15 227.85 191.22 228.2 192.31 233.73 190.96 234 192.31 234.47 193.03 238.09 186.54 238.09 188.48 229.99 189.51 229.72 188.62 229.48 190.15 221.89"/><polygon class="cls-17" points="182.86 225.42 183.76 230.14 182.86 230.37 183.76 230.66 184.66 235.25 183.54 235.48 184.66 235.87 185.26 238.88 179.87 238.88 181.48 232.15 182.34 231.92 181.59 231.73 182.86 225.42"/><polygon class="cls-17" points="163.66 217.45 164.82 223.55 163.66 223.84 164.82 224.22 165.98 230.15 164.53 230.44 165.98 230.95 166.75 234.83 159.79 234.83 161.87 226.14 162.98 225.85 162.01 225.6 163.66 217.45"/><polygon class="cls-17" points="144.51 213.42 145.85 220.43 144.51 220.76 145.85 221.19 147.18 228.01 145.51 228.34 147.18 228.92 148.06 233.38 140.08 233.38 142.46 223.4 143.74 223.07 142.63 222.78 144.51 213.42"/><polyline class="cls-17" points="151.31 239.77 154.77 225.31 156.62 224.83 155.01 224.41 157.74 210.86 159.67 221.01 157.74 221.49 159.67 222.12 161.59 231.99 159.19 232.47 161.59 233.31 162.88 239.77"/><polyline class="cls-17" points="166.79 236.77 169.4 225.86 170.8 225.49 169.58 225.18 171.65 214.94 173.1 222.6 171.65 222.97 173.1 223.44 174.56 230.89 172.74 231.26 174.56 231.89 175.53 236.77"/><path class="cls-17" d="M175.53,236.77s0,0,0-.08,0-.15-.05-.25l-.21-.95c-.17-.84-.42-2.06-.74-3.59l0,0-1.82-.62-.23-.08.23,0,1.82-.38,0,.09c-.43-2.15-.93-4.68-1.48-7.45l.06.07-1.45-.47-.3-.1.3-.08,1.46-.37-.07.11c-.38-2-.78-4.09-1.19-6.27l-.27-1.39h.19c-.75,3.68-1.45,7.15-2.07,10.23l-.07-.1,1.22.32.3.08-.3.08-1.4.36.06-.05-1.93,7.92c-.23.94-.42,1.68-.55,2.2l-.15.57a.63.63,0,0,1-.06.2s0-.07,0-.2.07-.34.13-.59c.12-.52.29-1.26.5-2.21l1.86-7.93,0-.05h0l1.4-.37v.16l-1.22-.31-.08,0,0-.08c.62-3.09,1.31-6.56,2.05-10.23l.1-.48.09.48.26,1.39c.42,2.17.82,4.29,1.19,6.27l0,.08-.09,0-1.45.37v-.18l1.46.48.05,0v.05c.53,2.77,1,5.3,1.44,7.45V231h-.07l-1.82.36v-.12l1.81.64h0v0c.3,1.54.53,2.75.69,3.6q.12.61.18,1l0,.24A.62.62,0,0,1,175.53,236.77Z"/><polyline class="cls-17" points="133.31 232.64 136.3 220.11 137.9 219.69 136.51 219.33 138.87 207.59 140.54 216.38 138.87 216.8 140.54 217.34 142.22 225.89 140.13 226.31 142.22 227.04 143.33 232.64"/><path class="cls-17" d="M143.33,232.64l0-.1-.06-.28c-.06-.26-.14-.62-.24-1.09-.2-1-.49-2.36-.85-4.12l0,0-2.09-.72-.26-.08.27-.06,2.09-.43-.07.1c-.48-2.47-1.06-5.37-1.69-8.55l.07.08-1.67-.54-.34-.11.35-.09,1.67-.42-.08.12c-.43-2.27-.9-4.7-1.37-7.2l-.3-1.59H139c-.85,4.22-1.66,8.2-2.38,11.74l-.07-.12,1.39.37.35.09-.35.09-1.6.42.07-.07c-.92,3.77-1.68,6.9-2.22,9.09-.26,1.08-.48,1.94-.62,2.53-.08.28-.13.5-.18.66l-.06.23s0-.08,0-.24l.14-.66c.14-.6.33-1.46.58-2.54.52-2.2,1.25-5.33,2.14-9.11V220l.06,0,1.6-.42v.18l-1.4-.36-.09,0,0-.09,2.36-11.74.11-.55.1.55c.1.52.2,1.06.3,1.59.48,2.5.94,4.93,1.37,7.2l0,.1-.1,0-1.67.42v-.2l1.67.55h0l0,.06c.61,3.19,1.17,6.09,1.65,8.56V226h-.08l-2.09.42v-.15l2.09.74h0v0c.34,1.77.6,3.17.79,4.14.09.47.15.83.2,1.1l0,.28A.67.67,0,0,1,143.33,232.64Z"/><path class="cls-12" d="M330.55,247.09a38.91,38.91,0,0,0-1.76,4.26c.24-.08,4.1-4.06,4.1-4.06Z"/><polygon class="cls-12" points="338.06 247.74 337.57 249.99 338.9 247.82 338.06 247.74"/><polygon class="cls-12" points="342.58 248.14 342.91 248.77 344.46 248.3 342.58 248.14"/><polygon class="cls-12" points="305.24 244.88 301.04 248.31 305.74 244.92 305.24 244.88"/><polygon class="cls-12" points="297.72 244.22 292.95 248.08 299.73 244.39 297.72 244.22"/><polygon class="cls-12" points="284.83 243.09 278.98 247.34 287.24 243.3 284.83 243.09"/><polygon class="cls-12" points="270.64 241.84 262.34 246.15 266.18 241.45 270.64 241.84"/><path class="cls-12" d="M265.5,241.39c-.21,0-7.52,3.23-7.52,3.23l4.52-3.49Z"/><path class="cls-12" d="M254,240.38c0,.16-5.17,1.28-5.17,1.28l1.62-1.59Z"/><polygon class="cls-12" points="257.99 240.73 255.29 242.71 260.03 240.91 257.99 240.73"/><path class="cls-17" d="M215.45,325.23s-1-.65,1.19-3.47a2.54,2.54,0,0,0,.53-2.72,2.23,2.23,0,0,0-2.93-1c-4.68,2.18-10.06,2-14.26,1.3a2.26,2.26,0,0,1-.49-4.33c4.48-1.81,9.75-4.4,10.84-6.93a3.64,3.64,0,0,0,.39-2.23,2,2,0,0,1,1-2.43,4.25,4.25,0,0,0,2.13-1.62c.92-1.6-1.19-3.38-2.69-4.4a2.13,2.13,0,0,1-1-2,5.35,5.35,0,0,0-.37-2.52c-.52-1.41-7.89-3.21-13.78-4.44a2.24,2.24,0,0,1-1.13-3.77,10.32,10.32,0,0,0,1.28-1.74,2.2,2.2,0,0,1,1.87-1.12c2.81-.1,9.24-.65,11.07-3.67,2.37-3.91-1.57-5-8.27-8.24-4-2-11-7.18-15.94-11a19.17,19.17,0,0,0,2.61-.23c-1.51-1.15-2.93-2.25-4.14-3.21a2.2,2.2,0,0,1-.51-.55,2.17,2.17,0,0,1,1.56-1.13c2.61-.49,5.51-1.24,6.77-2.32a3.76,3.76,0,0,0,1.1-1.27,2.15,2.15,0,0,1,1.95-1.2c7.48-.14,4.44-4.9,4.44-4.9a51,51,0,0,1-20.07-11.79,2.24,2.24,0,0,1,.84-3.74,21.12,21.12,0,0,0,7-3.77c1.14-1,1.24-1.84.86-2.45a2,2,0,0,1,1.13-2.88c2.66-1,4.63-2.7.57-5.3-2.82-1.79-6.47-3.89-9.78-5.73a2.26,2.26,0,0,1,.77-4.21c.93-.13,1.53-.25,1.53-.25,4.15-1.85,4.13-4.14,3.08-6a3.64,3.64,0,0,0-.4-2,3.11,3.11,0,0,1-.49.79,12.3,12.3,0,0,0-2.19-1.93c-5.13-2.88-11.53-8.08-16.41-12.33a2.26,2.26,0,0,1,1.61-3.95,5.09,5.09,0,0,0,1.6-.2c3.55-1.08-3.93-5.42-3.93-5.42s3.74,1.08,5.31,0-4.13-6.07-4.13-6.07c-7.48-4.83-16.48-16.56-21.52-23.51a2.24,2.24,0,0,0-3.63,0c-5,7-14,18.68-21.51,23.51a34.58,34.58,0,0,0-2.66,2.63l-1.69.23a.75.75,0,0,0,.21.91,1.9,1.9,0,0,0,.4.21c-.62.91-.93,1.72-.4,2.09a3.13,3.13,0,0,0,1.52.46c-1.08,1-1.64,2.1-.3,2.61-.91,1-1.25,1.92.16,2.35a5.15,5.15,0,0,0,1.61.2,2.26,2.26,0,0,1,1.6,3.95c-4.87,4.25-11.28,9.45-16.4,12.33,0,0-8.27,5.42,0,9.11,0,0,.6.12,1.52.25a2.26,2.26,0,0,1,.77,4.21c-3.31,1.84-7,3.94-9.77,5.73-4,2.57-2.13,4.26.49,5.27a2.26,2.26,0,0,1,1.12,3.09c-.27.58-.09,1.32,1,2.27a20.93,20.93,0,0,0,7,3.77,2.25,2.25,0,0,1,.84,3.74A51,51,0,0,1,85.9,244.12s-3.05,4.78,4.48,4.9a2.08,2.08,0,0,1,1.9,1.18,3.85,3.85,0,0,0,1.1,1.29c1.27,1.08,4.16,1.83,6.77,2.32a2.25,2.25,0,0,1,1,4c-4.87,3.84-12.93,10-17.4,12.14-6.69,3.25-10.63,4.33-8.27,8.24,1.83,3,8.27,3.57,11.08,3.67A2.21,2.21,0,0,1,88.41,283a9.32,9.32,0,0,0,1.28,1.74,2.36,2.36,0,0,1,.58,1.13l-1,.19c.33.13.67.22,1,.32a2.19,2.19,0,0,1-1.76,2.13c-5.9,1.23-13.26,3-13.79,4.44a5.45,5.45,0,0,0-.36,2.52,2.13,2.13,0,0,1-1,2c-1.5,1-3.61,2.8-2.69,4.4a4.25,4.25,0,0,0,2.13,1.62,2,2,0,0,1,1,2.43,3.71,3.71,0,0,0,.39,2.23c1.09,2.53,6.36,5.12,10.84,6.93a2.26,2.26,0,0,1-.45,4.33c-4.2.71-9.61.89-14.3-1.3a2.22,2.22,0,0,0-2.93,1,2.55,2.55,0,0,0,.54,2.71c2.17,2.82,1.18,3.47,1.18,3.47s-4.92-3.69-2.76,1.95c1.23,3.18,5.4,5.67,8.8,7.24a2.25,2.25,0,0,1,.56,3.7,2.07,2.07,0,0,0-.3,2.72c2,3.47,10.24,7.59,19.3,8.46a57.89,57.89,0,0,0,14.28-.91,2.15,2.15,0,0,1,2.5,2.6c-.29.95.12,1.89,1.92,2.64,3.28,1.37,6.81.17,9.23-1.1a2.25,2.25,0,0,1,3.13,1c.4.93,1.34,1.51,3.4.68A28.22,28.22,0,0,0,135,351v17.72a.87.87,0,0,0,.86.86h18.28a.87.87,0,0,0,.86-.86V354.07l.4.17c2.06.83,3,.25,3.4-.68a2.24,2.24,0,0,1,3.12-1c2.42,1.27,6,2.47,9.23,1.1,1.81-.75,2.22-1.7,1.92-2.65a2.13,2.13,0,0,1,2.47-2.6,57.7,57.7,0,0,0,14.32.92c9-.87,17.32-5,19.29-8.46a2,2,0,0,0-.3-2.72,2.25,2.25,0,0,1,.57-3.7c3.4-1.57,7.57-4.06,8.79-7.24C220.38,321.54,215.45,325.23,215.45,325.23Z"/><path class="cls-17" d="M723.38,277.81s-1.06-.72,1.27-3.84a3.08,3.08,0,0,0,.73-2.53,2.36,2.36,0,0,0-3.3-1.59c-5.05,2.43-10.87,2.24-15.39,1.45a2.52,2.52,0,0,1-.49-4.8c4.82-2,10.49-4.87,11.67-7.67a4.26,4.26,0,0,0,.42-2.48,2.27,2.27,0,0,1,1.1-2.68,4.59,4.59,0,0,0,2.29-1.81c1-1.76-1.28-3.74-2.89-4.86a2.39,2.39,0,0,1-1.06-2.2,6.14,6.14,0,0,0-.39-2.79c-.57-1.57-8.49-3.56-14.84-4.92a2.51,2.51,0,0,1-1.21-4.18,10.77,10.77,0,0,0,1.37-1.93,2.39,2.39,0,0,1,2-1.24c3-.11,10-.72,11.92-4.07,2.54-4.32-1.7-5.52-8.9-9.13-4.36-2.17-11.88-7.95-17.16-12.18a20.23,20.23,0,0,0,2.8-.25c-1.62-1.27-3.14-2.49-4.45-3.56a2.42,2.42,0,0,1-.55-.61,2.38,2.38,0,0,1,1.68-1.25c2.81-.55,5.93-1.38,7.29-2.57a4.65,4.65,0,0,0,1.12-1.29,2.46,2.46,0,0,1,2.09-1.45c8.14-.13,4.85-5.43,4.85-5.43a54.69,54.69,0,0,1-21.61-13.06,2.52,2.52,0,0,1,.91-4.14,22.33,22.33,0,0,0,7.56-4.18c1.14-1.08,1.31-1.92,1-2.58a2.29,2.29,0,0,1,1-3.27c2.92-1.11,5.18-3,.74-5.92-3-2-7-4.32-10.53-6.36a2.52,2.52,0,0,1,.86-4.66c1-.15,1.62-.28,1.62-.28,4.47-2.05,4.45-4.58,3.32-6.6a4,4,0,0,0-.44-2.22,3.29,3.29,0,0,1-.52.87,13.7,13.7,0,0,0-2.36-2.14c-5.52-3.19-12.41-9-17.66-13.66a2.51,2.51,0,0,1,1.73-4.38,5.3,5.3,0,0,0,1.73-.22c3.81-1.2-4.24-6-4.24-6s4,1.2,5.72,0-4.45-6.73-4.45-6.73c-8-5.34-17.71-18.31-23.13-26a2.39,2.39,0,0,0-4,0c-5.42,7.7-15.1,20.67-23.13,26a36.8,36.8,0,0,0-2.87,2.92l-1.82.25a.86.86,0,0,0,.23,1,1.78,1.78,0,0,0,.43.23c-.67,1-1,1.91-.43,2.32a3.45,3.45,0,0,0,1.64.51c-1.17,1.15-1.77,2.33-.33,2.88-1,1.09-1.34,2.14.18,2.61a5.26,5.26,0,0,0,1.73.22,2.52,2.52,0,0,1,1.73,4.38c-5.25,4.71-12.14,10.47-17.66,13.66,0,0-8.9,6,0,10.09,0,0,.64.13,1.62.28a2.52,2.52,0,0,1,.85,4.66c-3.56,2-7.49,4.37-10.52,6.36-4.45,2.91-2.18,4.81.74,5.92a2.3,2.3,0,0,1,1,3.27c-.33.66-.15,1.5,1,2.58a22.33,22.33,0,0,0,7.56,4.18,2.51,2.51,0,0,1,.9,4.14A54.64,54.64,0,0,1,583.94,188s-3.29,5.3,4.85,5.43a2.47,2.47,0,0,1,2.09,1.45,4.49,4.49,0,0,0,1.12,1.29c1.36,1.19,4.48,2,7.28,2.57a2.51,2.51,0,0,1,1.05,4.41c-5.24,4.25-13.91,11-18.72,13.44-7.2,3.61-11.44,4.81-8.9,9.13,2,3.35,8.89,4,11.92,4.07a2.39,2.39,0,0,1,2,1.24,10.87,10.87,0,0,0,1.38,1.93,2.65,2.65,0,0,1,.63,1.25l-1,.21c.35.14.72.25,1.08.36a2.4,2.4,0,0,1-1.9,2.36c-6.34,1.36-14.27,3.35-14.83,4.92a6.32,6.32,0,0,0-.4,2.79,2.38,2.38,0,0,1-1.05,2.2c-1.62,1.12-3.89,3.1-2.9,4.86a4.61,4.61,0,0,0,2.3,1.81,2.27,2.27,0,0,1,1.1,2.68,4.26,4.26,0,0,0,.42,2.48c1.17,2.8,6.85,5.67,11.67,7.67a2.52,2.52,0,0,1-.49,4.8c-4.53.79-10.34,1-15.4-1.45a2.36,2.36,0,0,0-3.29,1.59,3,3,0,0,0,.73,2.53c2.33,3.12,1.27,3.84,1.27,3.84s-5.3-4.08-3,2.16c1.32,3.53,5.8,6.29,9.46,8a2.53,2.53,0,0,1,.61,4.1,2.34,2.34,0,0,0-.32,3c2.12,3.84,11,8.41,20.77,9.37a60.56,60.56,0,0,0,15.46-1,2.37,2.37,0,0,1,2.56,3.06c-.22,1,.27,2,2.11,2.77,3.53,1.52,7.33.19,9.93-1.22a2.39,2.39,0,0,1,3.36,1.14c.44,1,1.45,1.68,3.66.76a39.71,39.71,0,0,0,6.44-3.64V326c-.21.53.21,10.39.72,10.39l19.66-9.43c.52,0,.93-.43,1.62-1V309.77c-.54.06-.4.13-.26.19,2.22.92,3.23.27,3.66-.76a2.39,2.39,0,0,1,3.36-1.14c2.61,1.41,6.41,2.74,9.94,1.22,1.84-.79,2.33-1.78,2.11-2.77a2.36,2.36,0,0,1,2.56-3.06,60.5,60.5,0,0,0,15.46,1c9.75-1,18.65-5.53,20.77-9.37a2.36,2.36,0,0,0-.32-3,2.53,2.53,0,0,1,.6-4.1c3.66-1.73,8.15-4.49,9.47-8C728.68,273.73,723.38,277.81,723.38,277.81Z"/><path class="cls-17" d="M609.45,322.23s-1-.65,1.19-3.47a2.61,2.61,0,0,0,.62-2.48,2.19,2.19,0,0,0-3-1.23c-4.69,2.18-10.08,2-14.29,1.3a2.26,2.26,0,0,1-.45-4.33c4.48-1.81,9.75-4.4,10.84-6.93a3.71,3.71,0,0,0,.39-2.23,2,2,0,0,1,1-2.43,4.25,4.25,0,0,0,2.13-1.62c.92-1.6-1.19-3.38-2.69-4.4a2.13,2.13,0,0,1-1-2,5.35,5.35,0,0,0-.37-2.52c-.52-1.41-7.85-3.2-13.74-4.43a2.28,2.28,0,0,1-1.17-3.79,10.28,10.28,0,0,0,1.28-1.73,2.2,2.2,0,0,1,1.87-1.12c2.81-.1,9.24-.65,11.07-3.67,2.37-3.91-1.57-5-8.27-8.24-4-2-11-7.18-15.94-11a19.17,19.17,0,0,0,2.61-.23c-1.51-1.15-2.93-2.25-4.14-3.21a2.2,2.2,0,0,1-.51-.55,2.17,2.17,0,0,1,1.56-1.13c2.61-.49,5.51-1.24,6.77-2.32a3.76,3.76,0,0,0,1.1-1.27,2.15,2.15,0,0,1,1.95-1.2c7.48-.14,4.44-4.9,4.44-4.9a50.93,50.93,0,0,1-20.05-11.77,2.25,2.25,0,0,1,.81-3.75,21.1,21.1,0,0,0,7-3.78c1.13-1,1.24-1.84.86-2.44a2,2,0,0,1,1.14-2.89c2.65-1,4.62-2.71.56-5.3-2.82-1.79-6.47-3.89-9.78-5.73a2.26,2.26,0,0,1,.77-4.21c.93-.13,1.53-.25,1.53-.25,4.15-1.85,4.13-4.14,3.08-6a3.56,3.56,0,0,0-.41-2,2.83,2.83,0,0,1-.48.79,12.3,12.3,0,0,0-2.19-1.93c-5.13-2.88-11.53-8.08-16.41-12.33a2.26,2.26,0,0,1,1.61-3.95,5.09,5.09,0,0,0,1.6-.2c3.55-1.08-3.93-5.42-3.93-5.42s3.74,1.08,5.31,0-4.13-6.07-4.13-6.07c-7.48-4.83-16.48-16.56-21.52-23.51a2.24,2.24,0,0,0-3.63,0c-5,7-14,18.68-21.51,23.51a34.58,34.58,0,0,0-2.66,2.63l-1.69.23a.75.75,0,0,0,.21.91,1.9,1.9,0,0,0,.4.21c-.62.91-.93,1.72-.4,2.09a3.13,3.13,0,0,0,1.52.46c-1.08,1-1.64,2.1-.3,2.61-.91,1-1.25,1.92.16,2.35a5.15,5.15,0,0,0,1.61.2,2.26,2.26,0,0,1,1.6,3.95c-4.87,4.25-11.28,9.45-16.4,12.33,0,0-8.27,5.42,0,9.11,0,0,.6.12,1.52.25a2.26,2.26,0,0,1,.77,4.21c-3.31,1.84-7,3.94-9.77,5.73-4,2.57-2.13,4.26.49,5.27a2.25,2.25,0,0,1,1.11,3.09c-.26.58-.07,1.32,1,2.27a20.93,20.93,0,0,0,7,3.77,2.25,2.25,0,0,1,.84,3.74,51,51,0,0,1-20.07,11.79s-3,4.76,4.43,4.9a2.17,2.17,0,0,1,2,1.2,3.82,3.82,0,0,0,1.09,1.27c1.27,1.08,4.16,1.83,6.77,2.32a2.25,2.25,0,0,1,1,4c-4.87,3.84-12.93,10-17.4,12.14-6.69,3.25-10.63,4.33-8.27,8.24,1.83,3,8.27,3.57,11.08,3.67a2.21,2.21,0,0,1,1.87,1.12,9.32,9.32,0,0,0,1.28,1.74,2.36,2.36,0,0,1,.58,1.13l-1,.19c.33.13.67.22,1,.32a2.19,2.19,0,0,1-1.76,2.13c-5.9,1.23-13.26,3-13.79,4.44a5.45,5.45,0,0,0-.36,2.52,2.13,2.13,0,0,1-1,2c-1.5,1-3.61,2.8-2.69,4.4a4.25,4.25,0,0,0,2.13,1.62,2,2,0,0,1,1,2.43,3.71,3.71,0,0,0,.39,2.23c1.09,2.53,6.36,5.12,10.84,6.93a2.26,2.26,0,0,1-.45,4.33c-4.2.71-9.61.89-14.3-1.3a2.22,2.22,0,0,0-2.93,1,2.53,2.53,0,0,0,.54,2.7c2.17,2.82,1.18,3.47,1.18,3.47s-4.92-3.69-2.76,1.95c1.23,3.18,5.4,5.67,8.8,7.24a2.25,2.25,0,0,1,.56,3.7,2.07,2.07,0,0,0-.3,2.72c2,3.47,10.24,7.59,19.3,8.46a57.84,57.84,0,0,0,14.27-.91,2.15,2.15,0,0,1,2.5,2.61c-.27.94.14,1.88,1.94,2.63,3.27,1.37,6.8.17,9.22-1.1a2.25,2.25,0,0,1,3.13,1c.4.93,1.34,1.51,3.4.68A28.22,28.22,0,0,0,529,348v17.72a.87.87,0,0,0,.86.86h18.28a.87.87,0,0,0,.86-.86V351.07l.4.17c2.06.83,3,.25,3.4-.68a2.24,2.24,0,0,1,3.12-1c2.42,1.27,6,2.47,9.23,1.1,1.82-.75,2.22-1.71,1.92-2.66a2.12,2.12,0,0,1,2.45-2.59,57.86,57.86,0,0,0,14.34.92c9-.87,17.32-5,19.29-8.46a2.06,2.06,0,0,0-.3-2.72,2.25,2.25,0,0,1,.57-3.7c3.4-1.57,7.57-4.06,8.79-7.24C614.38,318.54,609.45,322.23,609.45,322.23Z"/><path class="cls-17" d="M485.89,401.38s-.56-.37.68-2a1.6,1.6,0,0,0,.39-1.32,1.26,1.26,0,0,0-1.75-.82A14,14,0,0,1,477,398a1.3,1.3,0,0,1-.26-2.49c2.56-1,5.57-2.53,6.2-4a2.12,2.12,0,0,0,.22-1.28,1.17,1.17,0,0,1,.58-1.4,2.45,2.45,0,0,0,1.22-.93c.53-.92-.68-2-1.54-2.53a1.22,1.22,0,0,1-.55-1.14,3.21,3.21,0,0,0-.21-1.45c-.3-.82-4.51-1.85-7.89-2.56a1.29,1.29,0,0,1-.64-2.17,5.93,5.93,0,0,0,.73-1,1.25,1.25,0,0,1,1.07-.64c1.61-.06,5.29-.38,6.33-2.12,1.35-2.24-.9-2.87-4.73-4.74a68.26,68.26,0,0,1-9.11-6.33,10.71,10.71,0,0,0,1.49-.13c-.87-.66-1.67-1.29-2.37-1.84a1.71,1.71,0,0,1-.29-.32,1.24,1.24,0,0,1,.89-.65,10,10,0,0,0,3.88-1.34,2.35,2.35,0,0,0,.59-.67,1.3,1.3,0,0,1,1.11-.75c4.32-.06,2.57-2.82,2.57-2.82a29.26,29.26,0,0,1-11.47-6.78,1.29,1.29,0,0,1,.48-2.15,12.08,12.08,0,0,0,4-2.17c.61-.57.7-1,.53-1.34a1.19,1.19,0,0,1,.54-1.71c1.55-.57,2.76-1.55.4-3.07-1.61-1-3.7-2.24-5.6-3.3a1.3,1.3,0,0,1,.46-2.42l.86-.14c2.37-1.07,2.36-2.39,1.76-3.43a2.06,2.06,0,0,0-.23-1.16,1.56,1.56,0,0,1-.28.45,7.31,7.31,0,0,0-1.25-1.11,64.59,64.59,0,0,1-9.38-7.09,1.31,1.31,0,0,1,.92-2.28,3,3,0,0,0,.92-.11c2-.62-2.26-3.12-2.26-3.12s2.14.62,3,0-2.36-3.49-2.36-3.49c-4.27-2.78-9.41-9.51-12.29-13.51a1.29,1.29,0,0,0-2.1,0c-2.88,4-8,10.73-12.29,13.51a19.72,19.72,0,0,0-1.52,1.51l-1,.13c-.06.23,0,.42.13.53a.94.94,0,0,0,.22.12c-.35.52-.53,1-.22,1.2a1.66,1.66,0,0,0,.87.26c-.62.61-.95,1.22-.18,1.5-.52.57-.71,1.11.09,1.36a3,3,0,0,0,.92.11,1.31,1.31,0,0,1,.92,2.28,64.59,64.59,0,0,1-9.38,7.09s-4.73,3.12,0,5.25l.86.14a1.3,1.3,0,0,1,.46,2.42c-1.9,1.06-4,2.27-5.6,3.3-2.36,1.52-1.15,2.5.4,3.07a1.19,1.19,0,0,1,.54,1.71c-.17.34-.08.77.53,1.34a12.17,12.17,0,0,0,4,2.17,1.29,1.29,0,0,1,.48,2.15,29.26,29.26,0,0,1-11.47,6.78s-1.75,2.76,2.57,2.82a1.3,1.3,0,0,1,1.11.75,2.35,2.35,0,0,0,.59.67,10,10,0,0,0,3.88,1.34,1.29,1.29,0,0,1,.55,2.29c-2.78,2.21-7.39,5.73-9.94,7-3.83,1.87-6.08,2.5-4.73,4.74,1,1.74,4.72,2.06,6.33,2.12a1.25,1.25,0,0,1,1.07.64,5.93,5.93,0,0,0,.73,1,1.41,1.41,0,0,1,.34.65l-.55.11.57.19a1.24,1.24,0,0,1-1,1.22c-3.38.71-7.59,1.74-7.89,2.56a3,3,0,0,0-.2,1.45,1.25,1.25,0,0,1-.56,1.14c-.86.58-2.07,1.61-1.54,2.53a2.45,2.45,0,0,0,1.22.93,1.17,1.17,0,0,1,.58,1.4,2.12,2.12,0,0,0,.22,1.28c.63,1.46,3.64,3,6.2,4a1.3,1.3,0,0,1-.26,2.49,14,14,0,0,1-8.18-.75,1.26,1.26,0,0,0-1.75.82,1.6,1.6,0,0,0,.39,1.32c1.24,1.62.68,2,.68,2s-2.82-2.12-1.58,1.13c.7,1.83,3.08,3.26,5,4.16a1.31,1.31,0,0,1,.32,2.13,1.2,1.2,0,0,0-.17,1.57c1.12,2,5.85,4.37,11,4.86a32.71,32.71,0,0,0,8.22-.53,1.23,1.23,0,0,1,1.35,1.59c-.11.52.15,1,1.13,1.44a6.24,6.24,0,0,0,5.27-.64,1.29,1.29,0,0,1,1.79.6c.23.53.77.87,1.95.39a20.74,20.74,0,0,0,3.41-1.89v10.2c-.11.27.11.49.39.15h10.44c.28.34.5.12.17-.15V418a1.6,1.6,0,0,1,.56.1c1.17.48,1.71.14,1.94-.39a1.29,1.29,0,0,1,1.79-.6,6.24,6.24,0,0,0,5.27.64c1-.41,1.24-.92,1.13-1.44A1.23,1.23,0,0,1,463,414.7a32.71,32.71,0,0,0,8.22.53c5.18-.49,9.91-2.87,11-4.86a1.2,1.2,0,0,0-.17-1.57,1.31,1.31,0,0,1,.32-2.13c1.95-.9,4.33-2.33,5-4.16C488.71,399.26,485.89,401.38,485.89,401.38Z"/><path class="cls-17" d="M202.69,400.54c-1.94-62-14.76-66.46-14.76-66.46,9.54,25.79,3,66.46,3,66.46Z"/><path class="cls-17" d="M206.88,400.54c1.36-43.68,10.39-46.83,10.39-46.83-6.72,18.17-2.1,46.83-2.1,46.83Z"/><path class="cls-17" d="M213.81,400.54c.91-29.06,6.92-31.15,6.92-31.15-4.47,12.09-1.4,31.15-1.4,31.15Z"/><path class="cls-17" d="M194.08,400.54c-1-30.36-7.22-32.55-7.22-32.55,4.67,12.63,1.46,32.55,1.46,32.55Z"/><path class="cls-17" d="M200.81,400.54c1.26-71.46,9.59-76.61,9.59-76.61-6.2,29.73-1.94,76.61-1.94,76.61Z"/><path class="cls-17" d="M241.28,418.54c-2-53.79-15.35-57.66-15.35-57.66,9.92,22.37,3.1,57.66,3.1,57.66Z"/><path class="cls-17" d="M238.75,404.54c1.42-37.9,10.82-40.63,10.82-40.63-7,15.77-2.18,40.63-2.18,40.63Z"/><path class="cls-17" d="M247.36,400.54c.95-25.21,7.2-27,7.2-27-4.65,10.49-1.45,27-1.45,27Z"/><path class="cls-17" d="M225.38,400.54c-1-26.34-7.52-28.24-7.52-28.24,4.87,11,1.52,28.24,1.52,28.24Z"/><path class="cls-17" d="M231,400.54c-1.34-35.73-10.2-38.3-10.2-38.3,6.59,14.86,2.06,38.3,2.06,38.3Z"/><path class="cls-17" d="M234.19,412.54c1.31-62,10-66.46,10-66.46-6.45,25.79-2,66.46-2,66.46Z"/><path class="cls-17" d="M275.66,405.84c-3.12-27.85,3.19-31.39,3.19-31.39-3.2,12.64,2.88,30,2.88,30Z"/><path class="cls-17" d="M257.26,404.54c1.14-49.08,8.62-52.61,8.62-52.61-5.57,20.41-1.74,52.61-1.74,52.61Z"/><path class="cls-17" d="M260,400.54c-.71-19-5.41-20.31-5.41-20.31,3.5,7.88,1.09,20.31,1.09,20.31Z"/><path class="cls-17" d="M264.27,408.54c1.32-39.81,10-42.67,10-42.67-11.75,19.59-4.39,44-2,42.67Z"/><path class="cls-17" d="M293,436.54c-1.94-62-14.76-66.46-14.76-66.46,9.54,25.79,3,66.46,3,66.46Z"/><path class="cls-17" d="M291.16,395.54c-1-30.36-7.22-32.55-7.22-32.55,4.67,12.63,1.46,32.55,1.46,32.55Z"/><path class="cls-17" d="M287.55,431.54c1.26-71.46,9.59-76.61,9.59-76.61-6.2,29.73-1.94,76.61-1.94,76.61Z"/><path class="cls-17" d="M300,401.54c.95-25.21,7.2-27,7.2-27-4.65,10.49-1.45,27-1.45,27Z"/><path class="cls-17" d="M274.44,401.54c-1-26.34-7.52-28.24-7.52-28.24,4.86,11,1.52,28.24,1.52,28.24Z"/><path class="cls-17" d="M315.32,399.62c8.74-26.62,15.95-27.23,15.95-27.23-8.17,10.17-9.84,28.45-9.84,28.45Z"/><path class="cls-17" d="M309,401.54c-.71-19-5.41-20.31-5.41-20.31,3.5,7.88,1.09,20.31,1.09,20.31Z"/><path class="cls-17" d="M0,317.33s210.15,89.56,363.5,76.61S727,297.53,727,297.53v155H0Z"/><path class="cls-17" d="M8,322.31l25,9.11V320.79l.51.23c2.64,1.07,3.84.31,4.35-.88a2.87,2.87,0,0,1,4-1.33c3.09,1.64,7.62,3.19,11.81,1.42,2.27-1,2.81-2.14,2.49-3.34a2.68,2.68,0,0,1,3-3.45c5.43.95,12.49,1.78,18.47,1.21,11.6-1.12,22.18-6.43,24.7-10.9a2.67,2.67,0,0,0-.38-3.5,2.91,2.91,0,0,1,.72-4.77c4.36-2,9.69-5.23,11.25-9.32,2.78-7.27-3.52-2.52-3.52-2.52s-1.26-.84,1.51-4.47a3.26,3.26,0,0,0,.67-3.52,2.85,2.85,0,0,0-3.76-1.24c-6,2.81-12.94,2.58-18.32,1.65a2.89,2.89,0,0,1-.64-5.52c5.76-2.33,12.58-5.69,14-9a4.47,4.47,0,0,0,.45-3.05,2.34,2.34,0,0,1,1.29-2.92,5.51,5.51,0,0,0,2.8-2.13c1.2-2.08-1.61-4.42-3.54-5.71a2.74,2.74,0,0,1-1.15-2.57,7.14,7.14,0,0,0-.47-3.17c-.68-1.83-10.14-4.15-17.7-5.73a2.87,2.87,0,0,1-1.44-4.8,12.9,12.9,0,0,0,1.68-2.29,2.85,2.85,0,0,1,2.4-1.45c3.59-.12,11.83-.83,14.17-4.72,3-5-2-6.43-10.58-10.62-5.18-2.53-14.13-9.25-20.41-14.16a25,25,0,0,0,3.34-.3c-1.93-1.48-3.75-2.89-5.3-4.13a2.89,2.89,0,0,1-.65-.71,2.82,2.82,0,0,1,2-1.46c3.34-.63,7.05-1.6,8.67-3a5.63,5.63,0,0,0,1.33-1.51,2.88,2.88,0,0,1,2.48-1.67c9.68-.16,5.76-6.32,5.76-6.32A65.31,65.31,0,0,1,63.26,164a2.89,2.89,0,0,1,1.05-4.8c2.88-1,6.57-2.61,9-4.87,1.47-1.36,1.59-2.39,1.08-3.17a2.52,2.52,0,0,1,1.42-3.68c3.42-1.29,6-3.48.78-6.84-3.63-2.32-8.33-5-12.58-7.43a2.88,2.88,0,0,1,1-5.37c1.2-.17,2-.33,2-.33,5.31-2.38,5.29-5.33,4-7.67a4.69,4.69,0,0,0-.52-2.59,3.91,3.91,0,0,1-.62,1A15.87,15.87,0,0,0,67,115.76c-6.56-3.71-14.76-10.41-21-15.88a2.91,2.91,0,0,1,2.06-5.09,6.66,6.66,0,0,0,2-.26c4.54-1.4-5-7-5-7s4.79,1.39,6.81,0-5.3-7.82-5.3-7.82C37.05,73.51,25.52,58.4,19.08,49.45a2.86,2.86,0,0,0-4.65,0A230.09,230.09,0,0,1,0,67.71V319.78a38.76,38.76,0,0,0,8-4.57Z"/><path class="cls-17" d="M294.9,407.63c-.33.05-1.06-2.25-1.44-6.12a46.52,46.52,0,0,1-.12-6.81A51.71,51.71,0,0,1,297,378.42a46.13,46.13,0,0,1,3-6.12c2-3.35,3.62-5.12,3.9-4.93.67.41-4.41,8.42-6.82,19.61S295.69,407.54,294.9,407.63Z"/><path class="cls-17" d="M313.94,418c-.33,0-1.12-2.38-1.49-6.5-.09-1-.14-2.17-.14-3.39s.06-2.41,0-3.72c-.13-2.58-.58-5.5-.73-8.66a86.33,86.33,0,0,1,.57-16c.56-4.05,1.26-6.5,1.6-6.45.75.1-.26,10.06.43,22.28.14,3,.53,5.95.53,8.73a37.52,37.52,0,0,1-.22,3.88c-.1,1.16-.15,2.25-.18,3.25C314.19,415.41,314.32,417.93,313.94,418Z"/><path class="cls-17" d="M309.93,369.31c.72,0,1.3,6.84,1.29,15.28s-.6,15.27-1.32,15.27-1.29-6.84-1.29-15.27S309.21,369.31,309.93,369.31Z"/><path class="cls-17" d="M318.44,384.63c.71,0,1.14,3.16.24,6.88s-2.72,6.31-3.36,6,0-3.17.82-6.63S317.71,384.59,318.44,384.63Z"/><path class="cls-17" d="M242.72,371.24c.7.29-.75,5-1.34,10.95s-.2,10.85-.94,11c-.34.06-.91-1.12-1.33-3.16a28.41,28.41,0,0,1,1.66-16C241.6,372.15,242.4,371.11,242.72,371.24Z"/><polygon class="cls-17" points="326.53 399.86 338.07 379.94 361.13 371.42 379.58 380.17 391.11 391.27 326.53 399.86"/><path class="cls-12" d="M391.11,391.27c3.72,2.32,16.55,8.31,16.82,9.57-.23-1.06-3.56-12-3.56-12Z"/><path class="cls-12" d="M482.08,374.59h0l91.55,11.7-52.55-21.6Z"/><path class="cls-12" d="M581.82,347.54l82.06.86c-1.47-.49-25.69-18.2-25.69-18.2Z"/><polygon class="cls-12" points="322.39 395.42 324.5 407.63 330.19 395.64 322.39 395.42"/><polygon class="cls-12" points="295.04 393.99 292.37 408.18 300.44 394.46 295.04 393.99"/><path class="cls-12" d="M688,312.69l27.55,4.86s10-19.16,9.42-18.93Z"/><polygon class="cls-12" points="154.51 368.93 113.55 395.64 185.09 376.6 154.51 368.93"/><polygon class="cls-12" points="87.61 349.54 50.52 371.24 134.66 363.86 87.61 349.54"/></g></g></svg>